<svg width="24" height="21" viewBox="-3 0 24 21" fill="none" xmlns="http://www.w3.org/2000/svg">
<path d="M6 9.43859V4.16081C6 2.41191 7.34315 0.994141 9 0.994141C10.6569 0.994141 12 2.41191 12 4.16081V9.40403M7.4 19.9941H10.6C12.8402 19.9941 13.9603 19.9941 14.816 19.5339C15.5686 19.1291 16.1805 18.4832 16.564 17.6888C17 16.7856 17 15.6033 17 13.2386V10.7053C17 9.52292 17 8.93175 16.782 8.48016C16.5903 8.08293 16.2843 7.75997 15.908 7.55757C15.4802 7.32747 14.9201 7.32747 13.8 7.32747H4.2C3.0799 7.32747 2.51984 7.32747 2.09202 7.55757C1.71569 7.75997 1.40973 8.08293 1.21799 8.48016C1 8.93175 1 9.52292 1 10.7053V13.2386C1 15.6033 1 16.7856 1.43597 17.6888C1.81947 18.4832 2.43139 19.1291 3.18404 19.5339C4.03968 19.9941 5.15979 19.9941 7.4 19.9941Z" stroke="#C71010" stroke-width="1.8" stroke-linecap="round" stroke-linejoin="round"/>
</svg>
