<svg width="32" height="22" viewBox="-2 0 32 22" fill="none" xmlns="http://www.w3.org/2000/svg">
<path d="M2 6.11429C2 4.67415 2 3.95408 2.29065 3.40402C2.54631 2.92018 2.95426 2.5268 3.45603 2.28027C4.02646 2 4.77319 2 6.26667 2H10.8994C11.5516 2 11.8777 2 12.1846 2.07105C12.4567 2.13404 12.7168 2.23794 12.9554 2.37893C13.2245 2.53795 13.4551 2.76031 13.9163 3.20505L14.0837 3.36638C14.5449 3.81112 14.7755 4.03348 15.0446 4.1925C15.2832 4.33349 15.5433 4.43739 15.8154 4.50038C16.1223 4.57143 16.4484 4.57143 17.1006 4.57143H21.7333C23.2268 4.57143 23.9735 4.57143 24.544 4.8517C25.0457 5.09823 25.4537 5.49161 25.7094 5.97545C26 6.52551 26 7.24558 26 8.68571V15.8857C26 17.3258 26 18.0459 25.7094 18.596C25.4537 19.0798 25.0457 19.4732 24.544 19.7197C23.9735 20 23.2268 20 21.7333 20H6.26667C4.77319 20 4.02646 20 3.45603 19.7197C2.95426 19.4732 2.54631 19.0798 2.29065 18.596C2 18.0459 2 17.3258 2 15.8857V6.11429Z" stroke="#C71010" stroke-width="2.1" stroke-linecap="round" stroke-linejoin="round"/>
</svg>
