<svg width="35" height="35" viewBox="0 0 35 35" fill="none" xmlns="http://www.w3.org/2000/svg">
<path d="M31.9857 3.00708C34.1065 5.12784 34.1065 8.56628 31.9857 10.687C29.8649 12.8078 26.4265 12.8078 24.3057 10.687C22.185 8.56628 22.185 5.12784 24.3057 3.00708C26.4265 0.886313 29.8649 0.886313 31.9857 3.00708Z" fill="#C71010"/>
<path d="M33.5833 17.7082C33.5833 26.7058 26.2893 33.9998 17.2917 33.9998H1.00131C1.00131 33.9998 3.82374 27.2227 2.69417 24.9503C1.60977 22.7688 1 20.3097 1 17.7082C1 8.71053 8.29402 1.4165 17.2917 1.4165M31.9857 3.00708C34.1065 5.12784 34.1065 8.56628 31.9857 10.687C29.8649 12.8078 26.4265 12.8078 24.3057 10.687C22.185 8.56628 22.185 5.12784 24.3057 3.00708C26.4265 0.886313 29.8649 0.886313 31.9857 3.00708Z" stroke="#C71010" stroke-width="2" stroke-linecap="round" stroke-linejoin="round"/>
<circle cx="27.9168" cy="7.08333" r="7.08333" fill="#C71010"/>
</svg>
