<svg width="24" height="24" viewBox="-3 -3 24 24" fill="none" xmlns="http://www.w3.org/2000/svg">
<path d="M12.1693 3.27264L14.7027 5.78968M1 17C1.11297 16.2165 1.17592 15.4015 1.43976 14.6504C1.59176 14.2178 1.7994 13.8063 2.05756 13.4262C2.34848 12.9979 2.725 12.6249 3.47803 11.8788L13.9376 1.52058C14.6382 0.826475 15.774 0.826473 16.4746 1.52058C17.1751 2.21468 17.1751 3.34004 16.4746 4.03415L5.85395 14.5519C5.2159 15.184 4.89688 15.5001 4.53554 15.7561C4.21476 15.9833 3.86974 16.1749 3.5067 16.3275C2.71392 16.6606 1.8353 16.8006 1 17Z" stroke="#C71010" stroke-width="1.5" stroke-linejoin="round"/>
</svg>
