<svg width="24" height="24" viewBox="-1 -1 24 24" fill="none" xmlns="http://www.w3.org/2000/svg">
<path d="M11 3.77778C11 5.3119 9.75635 6.55556 8.22222 6.55556C6.6881 6.55556 5.44444 5.3119 5.44444 3.77778M11 3.77778C11 2.24365 9.75635 1 8.22222 1C6.6881 1 5.44444 2.24365 5.44444 3.77778M11 3.77778H21M5.44444 3.77778H1M18.7778 11C18.7778 12.5341 17.5341 13.7778 16 13.7778C14.4659 13.7778 13.2222 12.5341 13.2222 11M18.7778 11C18.7778 9.46588 17.5341 8.22222 16 8.22222C14.4659 8.22222 13.2222 9.46588 13.2222 11M18.7778 11H21M13.2222 11H1M8.77778 18.2222C8.77778 19.7563 7.53412 21 6 21C4.46588 21 3.22222 19.7563 3.22222 18.2222M8.77778 18.2222C8.77778 16.6881 7.53412 15.4444 6 15.4444C4.46588 15.4444 3.22222 16.6881 3.22222 18.2222M8.77778 18.2222H21M3.22222 18.2222H1" stroke="#C71010" stroke-width="2" stroke-linecap="round" stroke-linejoin="round"/>
</svg>
