<svg width="48" height="35" viewBox="-8.5 0 48 35" fill="none" xmlns="http://www.w3.org/2000/svg">
<path d="M10.4375 15.7778V7.16667C10.4375 4.3132 12.7041 2 15.5 2C18.2959 2 20.5625 4.3132 20.5625 7.16667V15.7214M12.8 33H18.2C21.9804 33 23.8705 33 25.3144 32.2492C26.5845 31.5887 27.6171 30.5348 28.2643 29.2386C29 27.765 29 25.8359 29 21.9778V17.8444C29 15.9154 29 14.9508 28.6321 14.214C28.3086 13.5659 27.7923 13.039 27.1572 12.7088C26.4353 12.3333 25.4902 12.3333 23.6 12.3333H7.4C5.50982 12.3333 4.56473 12.3333 3.84278 12.7088C3.20774 13.039 2.69143 13.5659 2.36785 14.214C2 14.9508 2 15.9154 2 17.8444V21.9778C2 25.8359 2 27.765 2.73571 29.2386C3.38285 30.5348 4.41547 31.5887 5.68556 32.2492C7.12947 33 9.01965 33 12.8 33Z" stroke="#C71010" stroke-width="2.4" stroke-linecap="round" stroke-linejoin="round"/>
</svg>
