<svg width="24" height="24" viewBox="-3.5 -3.5 24 24" fill="none" xmlns="http://www.w3.org/2000/svg">
<path d="M6.67708 6.41853C6.82391 6.00113 7.11373 5.64917 7.49519 5.42498C7.87666 5.20079 8.32516 5.11884 8.76126 5.19364C9.19736 5.26844 9.59292 5.49517 9.87787 5.83367C10.1628 6.17217 10.3188 6.6006 10.3181 7.04306C10.3181 8.29213 8.46745 9.5 8.46745 9.5M8.46745 11.4167H8.47578M16 8.5C16 12.6421 12.6421 16 8.5 16C4.35786 16 1 12.6421 1 8.5C1 4.35786 4.35786 1 8.5 1C12.6421 1 16 4.35786 16 8.5Z" stroke="#C71010" stroke-width="1.3" stroke-linecap="round" stroke-linejoin="round"/>
</svg>
