<svg width="32" height="24" viewBox="-1 0 32 24" fill="none" xmlns="http://www.w3.org/2000/svg">
<path d="M1 6.02857C1 4.26841 1 3.38832 1.33909 2.71603C1.63736 2.12466 2.1133 1.64387 2.6987 1.34255C3.3642 1 4.23539 1 5.97778 1H11.3826C12.1435 1 12.524 1 12.8821 1.08684C13.1995 1.16383 13.503 1.29081 13.7813 1.46313C14.0953 1.65749 14.3643 1.92927 14.9024 2.47283L15.0976 2.67002C15.6357 3.21359 15.9047 3.48537 16.2187 3.67973C16.497 3.85204 16.8005 3.97903 17.1179 4.05602C17.476 4.14286 17.8565 4.14286 18.6174 4.14286H24.0222C25.7646 4.14286 26.6358 4.14286 27.3013 4.48541C27.8867 4.78672 28.3626 5.26752 28.6609 5.85889C29 6.53118 29 7.41126 29 9.17143V17.9714C29 19.7316 29 20.6117 28.6609 21.284C28.3626 21.8753 27.8867 22.3561 27.3013 22.6574C26.6358 23 25.7646 23 24.0222 23H5.97778C4.23539 23 3.3642 23 2.6987 22.6574C2.1133 22.3561 1.63736 21.8753 1.33909 21.284C1 20.6117 1 19.7316 1 17.9714V6.02857Z" stroke="#C71010" stroke-width="2" stroke-linecap="round" stroke-linejoin="round"/>
</svg>
