<svg width="32" height="27" viewBox="-4 0 32 27" fill="none" xmlns="http://www.w3.org/2000/svg">
<path d="M7.875 12.1111V5.16667C7.875 2.86548 9.72183 1 12 1C14.2782 1 16.125 2.86548 16.125 5.16667V12.0656M9.8 26H14.2C17.2803 26 18.8204 26 19.9969 25.3945C21.0318 24.8618 21.8732 24.012 22.4005 22.9666C23 21.7782 23 20.2225 23 17.1111V13.7778C23 12.2221 23 11.4442 22.7003 10.85C22.4366 10.3274 22.0159 9.90241 21.4985 9.63609C20.9102 9.33333 20.1401 9.33333 18.6 9.33333H5.4C3.85986 9.33333 3.08978 9.33333 2.50153 9.63609C1.98408 9.90241 1.56338 10.3274 1.29973 10.85C1 11.4442 1 12.2221 1 13.7778V17.1111C1 20.2225 1 21.7782 1.59946 22.9666C2.12677 24.012 2.96816 24.8618 4.00305 25.3945C5.17957 26 6.71971 26 9.8 26Z" stroke="#C71010" stroke-width="2" stroke-linecap="round" stroke-linejoin="round"/>
</svg>
