<svg width="32" height="32" viewBox="-3.5 -3.5 32 32" fill="none" xmlns="http://www.w3.org/2000/svg">
<path d="M1 12.5L3.55556 9.94444M3.55556 9.94444L12.5 1L21.4444 9.94444M3.55556 9.94444V22.7222C3.55556 23.4279 4.12764 24 4.83333 24H8.66667M21.4444 9.94444L24 12.5M21.4444 9.94444V22.7222C21.4444 23.4279 20.8724 24 20.1667 24H16.3333M8.66667 24C9.37236 24 9.94444 23.4279 9.94444 22.7222V17.6111C9.94444 16.9054 10.5165 16.3333 11.2222 16.3333H13.7778C14.4835 16.3333 15.0556 16.9054 15.0556 17.6111V22.7222C15.0556 23.4279 15.6276 24 16.3333 24M8.66667 24H16.3333" stroke="#C71010" stroke-width="2" stroke-linecap="round" stroke-linejoin="round"/>
</svg>
