<svg width="24" height="17" viewBox="-1 0 24 17" fill="none" xmlns="http://www.w3.org/2000/svg">
<path fill-rule="evenodd" clip-rule="evenodd" d="M18.6803 12.1401L17.3104 10.7702C17.9247 10.1492 18.4893 9.49406 18.9943 8.83914C19.1208 8.67509 19.2377 8.51857 19.3445 8.37117C19.2377 8.22376 19.1208 8.06724 18.9943 7.90319C18.4086 7.14363 17.7427 6.38372 17.0122 5.67724C14.9844 3.71626 12.8752 2.55934 10.8362 2.55934C10.3303 2.55934 9.82003 2.63057 9.30779 2.76762L7.77544 1.23526C8.7755 0.836504 9.79689 0.62207 10.8362 0.62207C13.4782 0.62207 16.0045 2.00783 18.3589 4.28463C19.1621 5.06138 19.8888 5.89064 20.5285 6.72024C20.9145 7.22085 21.1885 7.61466 21.3386 7.84927L21.6724 8.37117L21.3386 8.89307C21.1885 9.12768 20.9145 9.52148 20.5285 10.0221C19.9752 10.7396 19.3569 11.4568 18.6803 12.1401ZM17.2513 13.4508C15.2181 15.1309 13.0684 16.1202 10.8362 16.1202C8.19417 16.1202 5.66784 14.7344 3.31346 12.4576C2.51025 11.6809 1.78359 10.8516 1.14391 10.022C0.757901 9.52139 0.483843 9.12758 0.333792 8.89297L0 8.37107L0.333792 7.84917C0.483843 7.61456 0.757901 7.22076 1.14391 6.72015C1.78359 5.89054 2.51025 5.06129 3.31346 4.28454C4.17566 3.45074 5.06093 2.73645 5.96649 2.16595L7.38079 3.58024C6.46675 4.1022 5.55554 4.8113 4.66019 5.67715C3.92964 6.38363 3.26375 7.14354 2.67807 7.9031C2.55158 8.06715 2.43469 8.22367 2.32783 8.37107C2.43469 8.51848 2.55158 8.675 2.67807 8.83904C3.26375 9.59861 3.92964 10.3585 4.66019 11.065C6.68798 13.026 8.79712 14.1829 10.8362 14.1829C12.4961 14.1829 14.2025 13.4162 15.8737 12.0731L17.2513 13.4508Z" fill="#C71010"/>
</svg>
