<svg width="24" height="21" viewBox="-1 0 24 21" fill="none" xmlns="http://www.w3.org/2000/svg">
<path fill-rule="evenodd" clip-rule="evenodd" d="M1.83474 0L0.464885 1.36986L4.40216 5.30713C4.0354 5.61109 3.67243 5.93752 3.31346 6.28466C2.51025 7.06141 1.78359 7.89067 1.14391 8.72028C0.757901 9.22089 0.483843 9.61469 0.333792 9.8493L0 10.3712L0.333792 10.8931C0.483843 11.1277 0.757901 11.5215 1.14391 12.0221C1.78359 12.8517 2.51025 13.681 3.31346 14.4577C5.66784 16.7345 8.19417 18.1203 10.8362 18.1203C12.5031 18.1203 14.124 17.5687 15.6847 16.5896L19.8376 20.7426L21.2075 19.3727L1.83474 0ZM14.2696 15.1746L12.8044 13.7094C12.2276 14.0503 11.5547 14.2459 10.8362 14.2459C8.69633 14.2459 6.96163 12.5112 6.96163 10.3713C6.96163 9.65278 7.15723 8.97991 7.4981 8.40307L5.77957 6.68454C5.40434 6.98714 5.0309 7.31877 4.66019 7.67727C3.92964 8.38375 3.26375 9.14366 2.67807 9.90323C2.55158 10.0673 2.43469 10.2238 2.32783 10.3712C2.43469 10.5186 2.55158 10.6751 2.67807 10.8392C3.26375 11.5987 3.92964 12.3586 4.66019 13.0651C6.68798 15.0261 8.79712 16.183 10.8362 16.183C11.9677 16.183 13.1208 15.8268 14.2696 15.1746ZM8.96453 9.86951C8.92173 10.0296 8.89891 10.1978 8.89891 10.3713C8.89891 11.4413 9.76625 12.3086 10.8362 12.3086C11.0097 12.3086 11.178 12.2858 11.338 12.243L8.96453 9.86951ZM18.6803 14.1402L17.3104 12.7703C17.9247 12.1494 18.4893 11.4942 18.9943 10.8393C19.1208 10.6752 19.2377 10.5187 19.3445 10.3713C19.2377 10.2239 19.1208 10.0674 18.9943 9.90332C18.4086 9.14376 17.7427 8.38385 17.0122 7.67737C14.9844 5.71639 12.8752 4.55947 10.8362 4.55947C10.3303 4.55947 9.82003 4.63069 9.30779 4.76774L7.77544 3.23539C8.7755 2.83663 9.79689 2.6222 10.8362 2.6222C13.4782 2.6222 16.0045 4.00795 18.3589 6.28476C19.1621 7.06151 19.8888 7.89076 20.5285 8.72037C20.9145 9.22098 21.1885 9.61478 21.3386 9.84939L21.6724 10.3713L21.3386 10.8932C21.1885 11.1278 20.9145 11.5216 20.5285 12.0222C19.9752 12.7397 19.3569 13.457 18.6803 14.1402Z" fill="#C71010"/>
</svg>
