<svg width="32" height="22" viewBox="-2 0 32 22" fill="none" xmlns="http://www.w3.org/2000/svg">
<path fill-rule="evenodd" clip-rule="evenodd" d="M17.9726 0.0113729L18.3014 0.177866C18.4932 0.275466 18.7726 0.49363 18.9644 0.69457C19.1507 0.88977 19.4356 1.26294 19.6 1.53278C19.7699 1.80261 20 2.19875 20.1151 2.42266C20.2301 2.64656 20.411 2.96807 20.526 3.1403C20.6356 3.31254 20.7726 3.502 20.8274 3.55367C20.9205 3.63978 21.1562 3.65127 25.1507 3.68571L25.6164 3.85795C25.874 3.94981 26.2301 4.12778 26.411 4.25409C26.5918 4.37465 26.8712 4.61578 27.0247 4.78801C27.1836 4.95451 27.4137 5.26453 27.5288 5.47695C27.6493 5.69512 27.8027 6.06255 28 6.72853V18.9572L27.874 19.3878C27.8027 19.6232 27.6438 19.9963 27.5178 20.2202C27.3918 20.4441 27.1562 20.7657 26.9863 20.9379C26.8219 21.1159 26.5151 21.3627 26.3014 21.4948C26.0877 21.6268 25.7315 21.7933 25.0959 22H2.90411L2.49315 21.868C2.26849 21.7933 1.92329 21.6326 1.72603 21.512C1.52877 21.3914 1.2274 21.1503 1.05205 20.9723C0.882192 20.7944 0.641096 20.4901 0.520548 20.2891C0.394521 20.0939 0.230137 19.7265 0 19.0146V6.72853L0.126027 6.29794C0.19726 6.06255 0.356164 5.68364 0.482192 5.46547C0.608219 5.24731 0.843836 4.92006 1.0137 4.74783C1.17808 4.56985 1.48493 4.32298 1.69863 4.19093C1.90685 4.05889 2.25205 3.89239 2.46575 3.8235C2.83288 3.69719 2.93151 3.69145 7.09589 3.65701L7.27123 3.4331C7.36986 3.3068 7.52877 3.07141 7.62192 2.89917C7.71507 2.73268 7.95069 2.31358 8.14247 1.96911C8.33425 1.63038 8.61918 1.18831 8.7726 0.993111C8.92055 0.803652 9.18356 0.539559 9.34795 0.413254C9.50685 0.286948 9.78082 0.143419 9.94521 0.0860079C10.2192 -0.00585061 10.5699 -0.0115918 17.9726 0.0113729ZM10.2082 2.04374C10.1096 2.17005 9.95068 2.40543 9.85753 2.57767C9.76438 2.74416 9.56712 3.10011 9.41918 3.36995C9.27123 3.63978 9.00822 4.05889 8.83836 4.30002C8.66301 4.54689 8.38904 4.85691 8.23014 4.98321C8.07671 5.11526 7.83562 5.27601 7.69863 5.34491C7.46301 5.45399 7.33699 5.46547 5.23288 5.49418L3.0137 5.52288C2.5863 5.74105 2.36712 5.90754 2.24658 6.03959C2.12055 6.16589 1.96164 6.39554 1.89041 6.55629L1.75342 6.84335V18.8424C1.96164 19.2844 2.12055 19.5198 2.24658 19.6461C2.36712 19.7782 2.5863 19.9447 2.73973 20.0193L3.0137 20.1628H24.9863C25.4082 19.9447 25.6329 19.7782 25.7534 19.6461C25.8795 19.5198 26.0384 19.2844 26.1096 19.1294L26.2466 18.8424V6.84335C26.0384 6.39554 25.8795 6.16589 25.7534 6.03959C25.6329 5.90754 25.4082 5.74105 25.2603 5.66641C24.9863 5.52288 24.9863 5.52288 22.7945 5.48844C21.2329 5.46547 20.5479 5.43677 20.411 5.3851C20.3068 5.34491 20.0822 5.2186 19.9178 5.09804C19.7534 4.97747 19.4795 4.71338 19.3151 4.5067C19.1507 4.30002 18.8548 3.85221 18.663 3.50774C18.4712 3.16327 18.2356 2.74416 18.1425 2.57767C18.0493 2.40543 17.8904 2.17005 17.7918 2.04374L17.6164 1.81984H10.389L10.2082 2.04374ZM14.1918 6.44147C14.537 6.45869 14.9973 6.52184 15.2603 6.585C15.5178 6.65389 15.9233 6.80316 16.1644 6.92372C16.4055 7.03855 16.7616 7.25097 16.9589 7.38876C17.1562 7.52655 17.4904 7.81934 17.7041 8.04325C17.9178 8.26716 18.1918 8.60588 18.3123 8.79534C18.4329 8.9848 18.6082 9.29482 18.6959 9.48428C18.789 9.67374 18.9151 9.98376 18.9753 10.1732C19.0356 10.3627 19.1178 10.6727 19.1562 10.8622C19.1945 11.0516 19.2274 11.5281 19.2274 11.9243C19.2274 12.3204 19.1945 12.7969 19.1562 12.9864C19.1178 13.1758 19.0356 13.4859 18.9753 13.6753C18.9151 13.8648 18.789 14.1748 18.6959 14.3643C18.6082 14.5537 18.4329 14.8637 18.3123 15.0532C18.1918 15.2427 17.9178 15.5814 17.7041 15.8053C17.4904 16.0292 17.1671 16.3163 16.9863 16.4426C16.8055 16.5689 16.5096 16.7526 16.3288 16.8444C16.1479 16.942 15.8521 17.0683 15.6712 17.1315C15.4904 17.2004 15.1945 17.2865 15.0137 17.3267C14.8329 17.3669 14.3781 17.4013 14 17.4013C13.6219 17.4013 13.1671 17.3669 12.9863 17.3267C12.8055 17.2865 12.5096 17.2004 12.3288 17.1315C12.1479 17.0683 11.8521 16.942 11.6712 16.8444C11.4904 16.7526 11.1945 16.5689 11.0137 16.4426C10.8329 16.3163 10.5096 16.0292 10.2959 15.8053C10.0877 15.5814 9.80274 15.2312 9.67123 15.0245C9.53973 14.8178 9.33699 14.4446 9.2274 14.192C9.11233 13.9394 8.96438 13.4973 8.89863 13.216C8.8 12.8084 8.7726 12.5328 8.7726 11.9243C8.7726 11.3157 8.8 11.0401 8.89863 10.6325C8.96438 10.3455 9.11233 9.90913 9.2274 9.65651C9.33699 9.4039 9.53973 9.03073 9.67123 8.82405C9.80274 8.61736 10.0877 8.26716 10.2959 8.04325C10.5096 7.81934 10.8438 7.52655 11.0411 7.38876C11.2384 7.25097 11.5945 7.03855 11.8356 6.92372C12.0767 6.80316 12.4329 6.66537 12.6301 6.6137C12.8274 6.56203 13.1233 6.49314 13.2877 6.47017C13.4521 6.44147 13.863 6.42999 14.1918 6.44147ZM12.3288 8.69774C12.0822 8.82979 11.8027 9.05943 11.5342 9.34075C11.2658 9.61633 11.0521 9.91487 10.9205 10.1732C10.811 10.3914 10.6685 10.7818 10.6082 11.0344C10.5425 11.2985 10.4932 11.6774 10.4932 11.9243C10.4932 12.1711 10.5425 12.5501 10.6082 12.8141C10.6685 13.0668 10.811 13.4514 10.9205 13.6753C11.0521 13.9337 11.2658 14.2322 11.5342 14.5078C11.8027 14.7891 12.0822 15.013 12.3288 15.1508C12.5425 15.2656 12.9096 15.4149 13.1507 15.4838C13.4027 15.5469 13.7644 15.5986 14 15.5986C14.2356 15.5986 14.5973 15.5469 14.8493 15.4838C15.0904 15.4149 15.463 15.2656 15.6712 15.1508C15.9178 15.013 16.2027 14.7891 16.4658 14.5078C16.7342 14.2322 16.9534 13.9337 17.0795 13.6753C17.1945 13.4514 17.337 13.0668 17.3973 12.8141C17.463 12.5501 17.5068 12.1711 17.5068 11.9243C17.5068 11.6774 17.463 11.2985 17.3973 11.0344C17.337 10.7818 17.1945 10.3914 17.0795 10.1732C16.9534 9.91487 16.7342 9.61633 16.4658 9.34075C16.2027 9.05943 15.9178 8.82979 15.6712 8.69774C15.463 8.57718 15.0904 8.43365 14.8493 8.36475C14.5753 8.29012 14.2466 8.24993 13.9726 8.24993C13.7205 8.25567 13.3589 8.30734 13.1233 8.3705C12.8986 8.43365 12.5425 8.57718 12.3288 8.69774Z" fill="#C71010"/>
</svg>
