<svg width="24" height="20" viewBox="-1 0 24 20" fill="none" xmlns="http://www.w3.org/2000/svg">
<path d="M5.44444 5.5H15.6667C17.5335 5.5 18.4669 5.5 19.18 5.86785C19.8072 6.19143 20.3171 6.70773 20.6367 7.34278C21 8.06473 21 9.00982 21 10.9V13.6C21 15.4902 21 16.4353 20.6367 17.1572C20.3171 17.7923 19.8072 18.3086 19.18 18.6321C18.4669 19 17.5335 19 15.6667 19H6.33333C4.46649 19 3.53307 19 2.82003 18.6321C2.19282 18.3086 1.68289 17.7923 1.36331 17.1572C1 16.4353 1 15.4902 1 13.6V6.4C1 4.50982 1 3.56473 1.36331 2.84278C1.68289 2.20774 2.19282 1.69143 2.82003 1.36785C3.53307 1 4.46649 1 6.33333 1H19.8889M15.9998 12.419H16.0098M16.4998 12.419C16.4998 12.6986 16.2759 12.9252 15.9998 12.9252C15.7236 12.9252 15.4998 12.6986 15.4998 12.419C15.4998 12.1394 15.7236 11.9127 15.9998 11.9127C16.2759 11.9127 16.4998 12.1394 16.4998 12.419Z" stroke="#C71010" stroke-width="2" stroke-linecap="round" stroke-linejoin="round"/>
</svg>
