<svg width="24" height="20" viewBox="-1.5 0 24 20" fill="none" xmlns="http://www.w3.org/2000/svg">
<path d="M20 11.125V3.25C20 2.00736 18.978 1 17.7174 1H3.28261C2.02196 1 1 2.00736 1 3.25V11.125M20 11.125V16.75C20 17.9926 18.978 19 17.7174 19H3.28261C2.02196 19 1 17.9926 1 16.75V11.125M20 11.125H17.0488C16.7461 11.125 16.4558 11.2435 16.2418 11.4545L13.4865 14.1705C13.2724 14.3815 12.9821 14.5 12.6794 14.5H8.32057C8.01788 14.5 7.72758 14.3815 7.51355 14.1705L4.75819 11.4545C4.54416 11.2435 4.25386 11.125 3.95117 11.125H1" stroke="#C71010" stroke-width="2" stroke-linecap="round" stroke-linejoin="round"/>
</svg>
