<svg width="24" height="24" viewBox="-1.5 -1.5 24 24" fill="none" xmlns="http://www.w3.org/2000/svg">
<path d="M20 3.11111L17.8889 10.5H5.61986M18.9444 14.7222H6.27778L4.16667 1H1M12.0833 1V7.33333M12.0833 1L9.97222 3.11111M12.0833 1L14.1944 3.11111M7.33333 18.9444C7.33333 19.5274 6.86075 20 6.27778 20C5.69481 20 5.22222 19.5274 5.22222 18.9444C5.22222 18.3615 5.69481 17.8889 6.27778 17.8889C6.86075 17.8889 7.33333 18.3615 7.33333 18.9444ZM18.9444 18.9444C18.9444 19.5274 18.4719 20 17.8889 20C17.3059 20 16.8333 19.5274 16.8333 18.9444C16.8333 18.3615 17.3059 17.8889 17.8889 17.8889C18.4719 17.8889 18.9444 18.3615 18.9444 18.9444Z" stroke="#C71010" stroke-width="2" stroke-linecap="round" stroke-linejoin="round"/>
</svg>
