<svg width="36" height="36" viewBox="0 0 36 36" fill="none" xmlns="http://www.w3.org/2000/svg">
<path d="M15.9224 2.31293C16.3768 1.24389 16.604 0.709369 16.9204 0.544749C17.1953 0.40175 17.5181 0.40175 17.7929 0.544749C18.1093 0.709369 18.3365 1.24389 18.791 2.31293L22.4106 10.828C22.545 11.144 22.6121 11.3021 22.7161 11.4231C22.8081 11.5301 22.9204 11.6158 23.046 11.6744C23.1879 11.7407 23.3519 11.7588 23.6801 11.7951L32.5216 12.7737C33.6316 12.8965 34.1866 12.9579 34.4337 13.2226C34.6483 13.4525 34.7481 13.7744 34.7033 14.0927C34.6518 14.4591 34.2372 14.8509 33.408 15.6344L26.8036 21.8756C26.5585 22.1072 26.4359 22.223 26.3583 22.3641C26.2896 22.4889 26.2467 22.6274 26.2323 22.7708C26.216 22.9327 26.2502 23.102 26.3187 23.4404L28.1634 32.5603C28.395 33.7052 28.5108 34.2777 28.3471 34.6059C28.2049 34.891 27.9437 35.09 27.6412 35.1437C27.293 35.2055 26.8096 34.9131 25.8427 34.3283L18.1412 29.6705C17.8554 29.4976 17.7125 29.4112 17.5606 29.3773C17.4261 29.3474 17.2872 29.3474 17.1528 29.3773C17.0008 29.4112 16.8579 29.4976 16.5721 29.6705L8.87066 34.3283C7.90377 34.9131 7.42033 35.2055 7.07209 35.1437C6.76958 35.09 6.50843 34.891 6.36624 34.6059C6.20255 34.2777 6.31835 33.7052 6.54994 32.5603L8.39462 23.4404C8.46308 23.102 8.49732 22.9327 8.48106 22.7708C8.46667 22.6274 8.42374 22.4889 8.35505 22.3641C8.27741 22.223 8.15485 22.1072 7.90973 21.8756L1.3053 15.6344C0.476141 14.8509 0.0615608 14.4591 0.0100251 14.0927C-0.0347417 13.7744 0.0650079 13.4525 0.279633 13.2226C0.526711 12.9579 1.08172 12.8965 2.19174 12.7737L11.0332 11.7951C11.3614 11.7588 11.5255 11.7407 11.6673 11.6744C11.7929 11.6158 11.9053 11.5301 11.9972 11.4231C12.1012 11.3021 12.1684 11.144 12.3027 10.828L15.9224 2.31293Z" fill="#C71010"/>
<path d="M60.7216 2.31293C61.1887 1.24389 61.4222 0.709369 61.7474 0.544749C62.0299 0.40175 62.3616 0.40175 62.6441 0.544749C62.9693 0.709369 63.2028 1.24389 63.6699 2.31293L67.3901 10.828C67.5282 11.144 67.5972 11.3021 67.704 11.4231C67.7986 11.5301 67.9141 11.6158 68.0431 11.6744C68.1889 11.7407 68.3575 11.7588 68.6948 11.7951L77.7819 12.7737C78.9228 12.8965 79.4932 12.9579 79.7471 13.2226C79.9677 13.4525 80.0702 13.7744 80.0242 14.0927C79.9713 14.4591 79.5452 14.8509 78.693 15.6344L71.9051 21.8756C71.6532 22.1072 71.5272 22.223 71.4474 22.3641C71.3768 22.4889 71.3327 22.6274 71.3179 22.7708C71.3012 22.9327 71.3364 23.102 71.4067 23.4404L73.3027 32.5603C73.5407 33.7052 73.6597 34.2777 73.4915 34.6059C73.3453 34.891 73.0769 35.09 72.766 35.1437C72.4081 35.2055 71.9112 34.9131 70.9175 34.3283L63.0021 29.6705C62.7083 29.4976 62.5614 29.4112 62.4053 29.3773C62.2671 29.3474 62.1243 29.3474 61.9862 29.3773C61.83 29.4112 61.6832 29.4976 61.3894 29.6705L53.474 34.3283C52.4803 34.9131 51.9834 35.2055 51.6255 35.1437C51.3146 35.09 51.0462 34.891 50.9 34.6059C50.7318 34.2777 50.8508 33.7052 51.0888 32.5603L52.9848 23.4404C53.0551 23.102 53.0903 22.9327 53.0736 22.7708C53.0588 22.6274 53.0147 22.4889 52.9441 22.3641C52.8643 22.223 52.7383 22.1072 52.4864 21.8756L45.6985 15.6344C44.8463 14.8509 44.4202 14.4591 44.3673 14.0927C44.3212 13.7744 44.4238 13.4525 44.6443 13.2226C44.8983 12.9579 45.4687 12.8965 46.6096 12.7737L55.6967 11.7951C56.0339 11.7588 56.2026 11.7407 56.3484 11.6744C56.4774 11.6158 56.5929 11.5301 56.6875 11.4231C56.7943 11.3021 56.8633 11.144 57.0014 10.828L60.7216 2.31293Z" fill="#C71010"/>
<path d="M106.485 2.31293C106.965 1.24389 107.205 0.709369 107.539 0.544749C107.829 0.40175 108.17 0.40175 108.46 0.544749C108.794 0.709369 109.033 1.24389 109.513 2.31293L113.334 10.828C113.476 11.144 113.547 11.3021 113.656 11.4231C113.753 11.5301 113.872 11.6158 114.005 11.6744C114.154 11.7407 114.328 11.7588 114.674 11.7951L124.007 12.7737C125.178 12.8965 125.764 12.9579 126.025 13.2226C126.251 13.4525 126.357 13.7744 126.31 14.0927C126.255 14.4591 125.818 14.8509 124.942 15.6344L117.971 21.8756C117.712 22.1072 117.583 22.223 117.501 22.3641C117.428 22.4889 117.383 22.6274 117.368 22.7708C117.351 22.9327 117.387 23.102 117.459 23.4404L119.406 32.5603C119.651 33.7052 119.773 34.2777 119.6 34.6059C119.45 34.891 119.174 35.09 118.855 35.1437C118.488 35.2055 117.977 34.9131 116.957 34.3283L108.827 29.6705C108.526 29.4976 108.375 29.4112 108.214 29.3773C108.072 29.3474 107.926 29.3474 107.784 29.3773C107.624 29.4112 107.473 29.4976 107.171 29.6705L99.0417 34.3283C98.0211 34.9131 97.5108 35.2055 97.1432 35.1437C96.8239 35.09 96.5483 34.891 96.3982 34.6059C96.2254 34.2777 96.3476 33.7052 96.5921 32.5603L98.5392 23.4404C98.6115 23.102 98.6476 22.9327 98.6305 22.7708C98.6153 22.6274 98.57 22.4889 98.4975 22.3641C98.4155 22.223 98.2861 22.1072 98.0274 21.8756L91.0561 15.6344C90.1808 14.8509 89.7432 14.4591 89.6888 14.0927C89.6416 13.7744 89.7469 13.4525 89.9734 13.2226C90.2342 12.9579 90.8201 12.8965 91.9918 12.7737L101.324 11.7951C101.671 11.7588 101.844 11.7407 101.994 11.6744C102.126 11.6158 102.245 11.5301 102.342 11.4231C102.452 11.3021 102.523 11.144 102.664 10.828L106.485 2.31293Z" fill="#D5D5D5"/>
<path d="M197.208 2.31293C197.662 1.24389 197.89 0.709369 198.206 0.544749C198.481 0.40175 198.804 0.40175 199.079 0.544749C199.395 0.709369 199.622 1.24389 200.077 2.31293L203.696 10.828C203.831 11.144 203.898 11.3021 204.002 11.4231C204.094 11.5301 204.206 11.6158 204.332 11.6744C204.474 11.7407 204.638 11.7588 204.966 11.7951L213.807 12.7737C214.917 12.8965 215.472 12.9579 215.719 13.2226C215.934 13.4525 216.034 13.7744 215.989 14.0927C215.937 14.4591 215.523 14.8509 214.694 15.6344L208.089 21.8756C207.844 22.1072 207.722 22.223 207.644 22.3641C207.575 22.4889 207.532 22.6274 207.518 22.7708C207.502 22.9327 207.536 23.102 207.604 23.4404L209.449 32.5603C209.681 33.7052 209.796 34.2777 209.633 34.6059C209.491 34.891 209.229 35.09 208.927 35.1437C208.579 35.2055 208.095 34.9131 207.128 34.3283L199.427 29.6705C199.141 29.4976 198.998 29.4112 198.846 29.3773C198.712 29.3474 198.573 29.3474 198.438 29.3773C198.286 29.4112 198.144 29.4976 197.858 29.6705L190.156 34.3283C189.189 34.9131 188.706 35.2055 188.358 35.1437C188.055 35.09 187.794 34.891 187.652 34.6059C187.488 34.2777 187.604 33.7052 187.836 32.5603L189.68 23.4404C189.749 23.102 189.783 22.9327 189.767 22.7708C189.752 22.6274 189.709 22.4889 189.641 22.3641C189.563 22.223 189.44 22.1072 189.195 21.8756L182.591 15.6344C181.762 14.8509 181.347 14.4591 181.296 14.0927C181.251 13.7744 181.351 13.4525 181.565 13.2226C181.812 12.9579 182.367 12.8965 183.477 12.7737L192.319 11.7951C192.647 11.7588 192.811 11.7407 192.953 11.6744C193.079 11.6158 193.191 11.5301 193.283 11.4231C193.387 11.3021 193.454 11.144 193.588 10.828L197.208 2.31293Z" fill="#D5D5D5"/>
<path d="M152.329 2.31293C152.796 1.24389 153.03 0.709369 153.355 0.544749C153.637 0.40175 153.969 0.40175 154.252 0.544749C154.577 0.709369 154.81 1.24389 155.277 2.31293L158.998 10.828C159.136 11.144 159.205 11.3021 159.311 11.4231C159.406 11.5301 159.521 11.6158 159.651 11.6744C159.796 11.7407 159.965 11.7588 160.302 11.7951L169.389 12.7737C170.53 12.8965 171.101 12.9579 171.355 13.2226C171.575 13.4525 171.678 13.7744 171.632 14.0927C171.579 14.4591 171.153 14.8509 170.3 15.6344L163.513 21.8756C163.261 22.1072 163.135 22.223 163.055 22.3641C162.984 22.4889 162.94 22.6274 162.925 22.7708C162.909 22.9327 162.944 23.102 163.014 23.4404L164.91 32.5603C165.148 33.7052 165.267 34.2777 165.099 34.6059C164.953 34.891 164.684 35.09 164.373 35.1437C164.016 35.2055 163.519 34.9131 162.525 34.3283L154.61 29.6705C154.316 29.4976 154.169 29.4112 154.013 29.3773C153.875 29.3474 153.732 29.3474 153.594 29.3773C153.437 29.4112 153.291 29.4976 152.997 29.6705L145.081 34.3283C144.088 34.9131 143.591 35.2055 143.233 35.1437C142.922 35.09 142.654 34.891 142.507 34.6059C142.339 34.2777 142.458 33.7052 142.696 32.5603L144.592 23.4404C144.663 23.102 144.698 22.9327 144.681 22.7708C144.666 22.6274 144.622 22.4889 144.551 22.3641C144.472 22.223 144.346 22.1072 144.094 21.8756L137.306 15.6344C136.454 14.8509 136.028 14.4591 135.975 14.0927C135.929 13.7744 136.031 13.4525 136.252 13.2226C136.506 12.9579 137.076 12.8965 138.217 12.7737L147.304 11.7951C147.641 11.7588 147.81 11.7407 147.956 11.6744C148.085 11.6158 148.2 11.5301 148.295 11.4231C148.402 11.3021 148.471 11.144 148.609 10.828L152.329 2.31293Z" fill="#D5D5D5"/>
</svg>
