<svg width="24" height="24" viewBox="-3 -3 24 24" fill="none" xmlns="http://www.w3.org/2000/svg">
<path d="M8.11145 0.955382C8.34295 0.410791 8.4587 0.138496 8.61988 0.0546349C8.75989 -0.0182116 8.92432 -0.0182116 9.06433 0.0546349C9.22551 0.138496 9.34126 0.410792 9.57276 0.955384L11.4167 5.29315C11.4851 5.45414 11.5194 5.53464 11.5723 5.59628C11.6192 5.65083 11.6764 5.69445 11.7404 5.72432C11.8126 5.75808 11.8962 5.76733 12.0634 5.78583L16.5674 6.28431C17.1329 6.34689 17.4156 6.37818 17.5415 6.51301C17.6508 6.63013 17.7017 6.79412 17.6789 6.95626C17.6526 7.14291 17.4414 7.34249 17.019 7.74165L13.6546 10.921C13.5297 11.039 13.4673 11.098 13.4277 11.1699C13.3927 11.2335 13.3709 11.304 13.3635 11.377C13.3552 11.4595 13.3727 11.5458 13.4076 11.7182L14.3473 16.364C14.4653 16.9473 14.5242 17.2389 14.4409 17.4061C14.3684 17.5514 14.2354 17.6527 14.0813 17.6801C13.9039 17.7116 13.6576 17.5626 13.1651 17.2647L9.24178 14.8919C9.09617 14.8038 9.02337 14.7598 8.94597 14.7426C8.87749 14.7273 8.80672 14.7273 8.73824 14.7426C8.66085 14.7598 8.58804 14.8038 8.44243 14.8919L4.51915 17.2647C4.0266 17.5626 3.78032 17.7116 3.60292 17.6801C3.44882 17.6527 3.31578 17.5514 3.24335 17.4061C3.15996 17.2389 3.21895 16.9473 3.33693 16.364L4.27665 11.7182C4.31153 11.5458 4.32896 11.4595 4.32068 11.377C4.31335 11.304 4.29148 11.2335 4.25649 11.1699C4.21694 11.098 4.1545 11.039 4.02963 10.921L0.665198 7.74165C0.242805 7.34249 0.0316091 7.14291 0.00535576 6.95626C-0.0174494 6.79412 0.0333652 6.63013 0.1427 6.51301C0.268566 6.37818 0.551301 6.34689 1.11677 6.28431L5.62082 5.78583C5.78799 5.76733 5.87157 5.75808 5.94385 5.72432C6.00779 5.69445 6.06505 5.65083 6.1119 5.59628C6.16486 5.53464 6.19907 5.45414 6.26751 5.29315L8.11145 0.955382Z" fill="#C71010"/>
</svg>
