<svg width="32" height="32" viewBox="-3.5 -3.5 32 32" fill="none" xmlns="http://www.w3.org/2000/svg">
<path d="M11.6323 3.13452C11.9073 2.48781 12.0447 2.16446 12.2361 2.06488C12.4024 1.97837 12.5976 1.97837 12.7639 2.06488C12.9553 2.16446 13.0927 2.48782 13.3677 3.13452L15.5573 8.28561C15.6386 8.47679 15.6792 8.57238 15.7421 8.64559C15.7978 8.71036 15.8657 8.76216 15.9417 8.79763C16.0275 8.83772 16.1268 8.8487 16.3253 8.87067L21.6738 9.46262C22.3453 9.53694 22.6811 9.57409 22.8305 9.7342C22.9604 9.87327 23.0207 10.068 22.9936 10.2606C22.9625 10.4822 22.7117 10.7192 22.2101 11.1932L18.2148 14.9687C18.0665 15.1088 17.9924 15.1789 17.9454 15.2642C17.9039 15.3397 17.8779 15.4235 17.8692 15.5102C17.8594 15.6082 17.8801 15.7106 17.9215 15.9154L19.0374 21.4323C19.1775 22.1249 19.2475 22.4712 19.1485 22.6698C19.0625 22.8422 18.9045 22.9626 18.7215 22.9951C18.5109 23.0325 18.2184 22.8556 17.6335 22.5019L12.9746 19.6841C12.8017 19.5796 12.7152 19.5273 12.6233 19.5068C12.542 19.4887 12.458 19.4887 12.3767 19.5068C12.2848 19.5273 12.1983 19.5796 12.0254 19.6841L7.36649 22.5019C6.78159 22.8556 6.48913 23.0325 6.27847 22.9951C6.09547 22.9626 5.93749 22.8422 5.85148 22.6698C5.75245 22.4712 5.8225 22.1249 5.9626 21.4323L7.07852 15.9154C7.11994 15.7106 7.14064 15.6082 7.13081 15.5102C7.1221 15.4235 7.09613 15.3397 7.05458 15.2642C7.00762 15.1789 6.93347 15.1088 6.78519 14.9687L2.78992 11.1932C2.28833 10.7192 2.03754 10.4822 2.00636 10.2606C1.97928 10.068 2.03962 9.87327 2.16946 9.7342C2.31892 9.57409 2.65467 9.53694 3.32616 9.46262L8.67472 8.87067C8.87324 8.8487 8.97249 8.83772 9.05832 8.79763C9.13426 8.76216 9.20225 8.71036 9.25788 8.64559C9.32077 8.57238 9.3614 8.47679 9.44267 8.28561L11.6323 3.13452Z" stroke="#C71010" stroke-width="2.2" stroke-linecap="round" stroke-linejoin="round"/>
</svg>
