<svg width="32" height="32" viewBox="-5 0 32 32" fill="none" xmlns="http://www.w3.org/2000/svg">
<path d="M15.0537 0.498047C16.1383 0.194219 17.2956 0.240918 18.3506 0.629883C19.4057 1.01899 20.3003 1.72956 20.9004 2.65234C21.5003 3.57483 21.7747 4.66006 21.6826 5.74512C21.5905 6.83036 21.1369 7.85899 20.3887 8.6748C19.6403 9.49073 18.6373 10.0499 17.5303 10.2666C16.4232 10.4833 15.2732 10.3456 14.2549 9.87402L14.0684 9.78711L13.9199 9.93066L10.2529 13.4863L10.0957 13.6387L10.1934 13.835C10.5179 14.4895 10.6992 15.2243 10.6992 16C10.6992 16.7757 10.5179 17.5105 10.1934 18.165L10.0957 18.3613L10.2529 18.5137L13.9199 22.0693L14.0684 22.2129L14.2549 22.126C15.363 21.6128 16.6234 21.4965 17.8125 21.7969C19.0015 22.0972 20.041 22.7944 20.748 23.7637C21.4549 24.7329 21.7853 25.9123 21.6816 27.0928C21.578 28.2733 21.0463 29.3823 20.1797 30.2227C19.3129 31.063 18.1661 31.5805 16.9414 31.6816C15.7166 31.7827 14.495 31.4604 13.4932 30.7734C12.4918 30.0867 11.775 29.0804 11.4668 27.9336C11.1587 26.7868 11.2785 25.5711 11.8057 24.501L11.9023 24.3047L11.7451 24.1523L8.07812 20.5967L7.93066 20.4541L7.74316 20.54C6.94975 20.9071 6.07278 21.0735 5.19434 21.0234C4.31599 20.9733 3.46575 20.7084 2.72266 20.2539C1.97953 19.7994 1.36752 19.1707 0.944336 18.4268C0.521187 17.6828 0.299805 16.8474 0.299805 15.999C0.299822 15.1507 0.521204 14.3152 0.944336 13.5713C1.36752 12.8274 1.97958 12.1986 2.72266 11.7441C3.46573 11.2897 4.31603 11.0247 5.19434 10.9746C6.07275 10.9245 6.94977 11.0909 7.74316 11.458L7.93066 11.5449L8.07812 11.4014L11.7451 7.84766L11.9023 7.69531L11.8057 7.49902C11.4718 6.82267 11.2983 6.08297 11.2988 5.33398V5.33301C11.2989 4.24428 11.6636 3.18361 12.3398 2.31152C13.0163 1.43917 13.9689 0.802003 15.0537 0.498047ZM16.499 24.5889C16.2202 24.5884 15.9436 24.6414 15.6855 24.7451C15.4274 24.8489 15.1922 25.0014 14.9941 25.1943C14.6445 25.5335 14.4258 25.9813 14.377 26.4619C14.3282 26.9428 14.4528 27.4252 14.7285 27.8252C15.0041 28.2248 15.4133 28.517 15.8838 28.6553C16.3542 28.7935 16.859 28.7695 17.3135 28.5869C17.7681 28.4042 18.1459 28.074 18.3799 27.6494C18.614 27.2245 18.6891 26.7325 18.5918 26.2588C18.4945 25.7854 18.2314 25.3613 17.8496 25.0576C17.4678 24.754 16.9902 24.5888 16.499 24.5889ZM5.49902 13.9219C4.93613 13.9219 4.39393 14.1388 3.99316 14.5273C3.5921 14.9162 3.36524 15.4459 3.36523 16C3.36523 16.5541 3.5921 17.0838 3.99316 17.4727C4.39393 17.8612 4.93613 18.0781 5.49902 18.0781C6.06174 18.078 6.60323 17.8611 7.00391 17.4727C7.40498 17.0838 7.63184 16.5541 7.63184 16C7.63183 15.4459 7.40498 14.9162 7.00391 14.5273C6.60323 14.1389 6.06173 13.922 5.49902 13.9219ZM16.5 3.25586C15.9371 3.25586 15.3949 3.47274 14.9941 3.86133C14.5933 4.25011 14.3663 4.77916 14.3662 5.33301C14.3662 5.88704 14.5931 6.41678 14.9941 6.80566C15.3949 7.19425 15.9371 7.41113 16.5 7.41113C17.0627 7.41101 17.6042 7.19414 18.0049 6.80566C18.4059 6.41678 18.6328 5.88704 18.6328 5.33301C18.6327 4.77916 18.4057 4.25011 18.0049 3.86133C17.6042 3.47285 17.0627 3.25598 16.5 3.25586Z" fill="#C71010" stroke="white" stroke-width="0.6"/>
</svg>
