<svg width="24" height="24" viewBox="6.5 7 24 24" fill="none" xmlns="http://www.w3.org/2000/svg">
<path d="M18.2512 12.6702C20.3129 12.6702 20.5575 12.6779 21.3721 12.7152C23.4647 12.8104 24.4421 13.8033 24.5373 15.8804C24.5747 16.6944 24.5817 16.939 24.5817 19.0006C24.5817 21.063 24.574 21.3069 24.5373 22.1208C24.4415 24.196 23.4666 25.1909 21.3721 25.2861C20.5575 25.3234 20.3142 25.3311 18.2512 25.3311C16.1896 25.3311 15.945 25.3234 15.131 25.2861C13.0333 25.1902 12.061 24.1928 11.9658 22.1202C11.9285 21.3062 11.9208 21.0623 11.9208 19C11.9208 16.9383 11.9291 16.6944 11.9658 15.8798C12.0617 13.8033 13.0365 12.8098 15.131 12.7146C15.9457 12.6779 16.1896 12.6702 18.2512 12.6702ZM18.2512 11.2783C16.1542 11.2783 15.8916 11.2873 15.068 11.3247C12.2637 11.4533 10.7052 13.0093 10.5765 15.8161C10.5386 16.6404 10.5296 16.9029 10.5296 19C10.5296 21.0971 10.5386 21.3603 10.5759 22.1839C10.7046 24.9882 12.2605 26.5467 15.0673 26.6754C15.8916 26.7127 16.1542 26.7217 18.2512 26.7217C20.3483 26.7217 20.6115 26.7127 21.4352 26.6754C24.2368 26.5467 25.7992 24.9907 25.926 22.1839C25.9639 21.3603 25.9729 21.0971 25.9729 19C25.9729 16.9029 25.9639 16.6404 25.9266 15.8167C25.8005 13.0151 24.2426 11.454 21.4358 11.3253C20.6115 11.2873 20.3483 11.2783 18.2512 11.2783ZM18.2512 15.0349C16.0615 15.0349 14.2862 16.8103 14.2862 19C14.2862 21.1897 16.0615 22.9657 18.2512 22.9657C20.441 22.9657 22.2163 21.1904 22.2163 19C22.2163 16.8103 20.441 15.0349 18.2512 15.0349ZM18.2512 21.5739C16.8298 21.5739 15.6774 20.4221 15.6774 19C15.6774 17.5786 16.8298 16.4261 18.2512 16.4261C19.6727 16.4261 20.8251 17.5786 20.8251 19C20.8251 20.4221 19.6727 21.5739 18.2512 21.5739ZM22.3733 13.952C21.8611 13.952 21.4461 14.367 21.4461 14.8786C21.4461 15.3901 21.8611 15.8052 22.3733 15.8052C22.8849 15.8052 23.2993 15.3901 23.2993 14.8786C23.2993 14.367 22.8849 13.952 22.3733 13.952Z" fill="white"/>
</svg>
