<svg width="24" height="24" viewBox="6.5 7 24 24" fill="none" xmlns="http://www.w3.org/2000/svg">
<path d="M18.1423 9.87427C15.5555 9.87427 13.4586 11.9713 13.4586 14.558C13.4586 17.1447 15.5555 19.2418 18.1423 19.2418C20.729 19.2418 22.826 17.1447 22.826 14.558C22.826 11.9713 20.729 9.87427 18.1423 9.87427ZM18.1423 16.4942C17.073 16.4942 16.2062 15.6273 16.2062 14.558C16.2062 13.4887 17.073 12.6219 18.1423 12.6219C19.2116 12.6219 20.0784 13.4887 20.0784 14.558C20.0784 15.6273 19.2116 16.4942 18.1423 16.4942Z" fill="white"/>
<path d="M19.7958 22.9688C21.6709 22.5868 22.7945 21.6988 22.854 21.6512C23.4026 21.2111 23.4908 20.4096 23.0508 19.8609C22.6108 19.3122 21.8094 19.2241 21.2605 19.664C21.2489 19.6734 20.0505 20.5927 18.0787 20.5941C16.1069 20.5927 14.8831 19.6734 14.8715 19.664C14.3227 19.2241 13.5212 19.3122 13.0813 19.8609C12.6413 20.4096 12.7294 21.2111 13.2781 21.6512C13.3383 21.6995 14.5083 22.6106 16.436 22.9836L13.7495 25.7912C13.2613 26.2975 13.2759 27.1037 13.7822 27.5919C14.0294 27.8302 14.3479 27.9486 14.6661 27.9486C14.9998 27.9486 15.3331 27.8183 15.583 27.5591L18.0787 24.9005L20.8265 27.5763C21.3244 28.0734 22.1306 28.0726 22.6276 27.5749C23.1245 27.0772 23.1239 26.2708 22.6261 25.7739L19.7958 22.9688Z" fill="white"/>
<path d="M18.0793 20.594C18.074 20.594 18.0845 20.5941 18.0793 20.5942C18.0741 20.5941 18.0846 20.594 18.0793 20.594Z" fill="white"/>
</svg>
