<svg width="24" height="19" viewBox="-2 0 24 19" fill="none" xmlns="http://www.w3.org/2000/svg">
<path d="M5 5.25H14.2C15.8802 5.25 16.7202 5.25 17.362 5.59742C17.9265 5.90301 18.3854 6.39064 18.673 6.99041C19 7.67225 19 8.56483 19 10.35V12.9C19 14.6852 19 15.5778 18.673 16.2596C18.3854 16.8594 17.9265 17.347 17.362 17.6526C16.7202 18 15.8802 18 14.2 18H5.8C4.11984 18 3.27976 18 2.63803 17.6526C2.07354 17.347 1.6146 16.8594 1.32698 16.2596C1 15.5778 1 14.6852 1 12.9V6.1C1 4.31483 1 3.42225 1.32698 2.74041C1.6146 2.14064 2.07354 1.65301 2.63803 1.34742C3.27976 1 4.11984 1 5.8 1H18M14.4998 11.7846H14.5088M14.9498 11.7846C14.9498 12.0486 14.7483 12.2627 14.4998 12.2627C14.2513 12.2627 14.0498 12.0486 14.0498 11.7846C14.0498 11.5205 14.2513 11.3065 14.4998 11.3065C14.7483 11.3065 14.9498 11.5205 14.9498 11.7846Z" stroke="#C71010" stroke-width="2" stroke-linecap="round" stroke-linejoin="round"/>
</svg>
