<svg width="51" height="39" viewBox="0 0 51 39" fill="none" xmlns="http://www.w3.org/2000/svg">
<path d="M1 11.5714H50M11.8889 27.4286H17.3333M9.71111 38H41.2889C44.3381 38 45.8627 38 47.0273 37.4239C48.0517 36.9171 48.8846 36.1085 49.4066 35.1139C50 33.9833 50 32.5031 50 29.5429V9.45714C50 6.49687 50 5.01673 49.4066 3.88605C48.8846 2.89148 48.0517 2.08287 47.0273 1.57611C45.8627 1 44.3381 1 41.2889 1H9.71111C6.66194 1 5.13735 1 3.97272 1.57611C2.94828 2.08287 2.11539 2.89148 1.59341 3.88605C1 5.01673 1 6.49686 1 9.45714V29.5429C1 32.5031 1 33.9833 1.59341 35.1139C2.11539 36.1085 2.94828 36.9171 3.97272 37.4239C5.13735 38 6.66194 38 9.71111 38Z" stroke="#C71010" stroke-width="2" stroke-linecap="round" stroke-linejoin="round"/>
</svg>
