<svg width="126" height="42" viewBox="0 0 126 42" fill="none" xmlns="http://www.w3.org/2000/svg">
<path d="M125.769 35.5803C125.769 38.6505 123.28 41.1404 120.21 41.1404H5.55961C2.48965 41.1406 0 38.6507 0 35.5803V5.55961C0 2.48965 2.48965 0 5.55961 0H120.21C123.28 0 125.768 2.48965 125.768 5.55961V35.5803H125.769Z" fill="black"/>
<mask id="mask0_125_119" style="mask-type:luminance" maskUnits="userSpaceOnUse" x="9" y="8" width="25" height="28">
<path d="M27.2558 18.1086L21.5848 14.8346C21.5848 14.8346 11.2535 8.86899 10.6461 8.51835C10.0387 8.16771 9.43359 8.38016 9.43359 9.11291V34.8457C9.43359 35.3951 9.8661 35.6318 10.3938 35.3274C10.9212 35.0225 21.5848 28.8656 21.5848 28.8656L27.2556 25.5918C27.2556 25.5918 32.0672 22.814 32.7067 22.4449C33.3463 22.0753 33.2848 21.5688 32.7451 21.2782C32.2056 20.9873 27.2558 18.1086 27.2558 18.1086Z" fill="white"/>
</mask>
<g mask="url(#mask0_125_119)">
<path d="M9.43359 7.91992V35.7802L23.4824 21.8502L9.43359 7.91992Z" fill="url(#paint0_linear_125_119)"/>
</g>
<mask id="mask1_125_119" style="mask-type:luminance" maskUnits="userSpaceOnUse" x="9" y="8" width="25" height="28">
<path d="M27.2558 18.1086L21.5848 14.8346C21.5848 14.8346 11.2535 8.86899 10.6461 8.51835C10.0387 8.16771 9.43359 8.38016 9.43359 9.11291V34.8457C9.43359 35.3951 9.8661 35.6318 10.3938 35.3274C10.9212 35.0225 21.5848 28.8656 21.5848 28.8656L27.2556 25.5918C27.2556 25.5918 32.0672 22.814 32.7067 22.4449C33.3463 22.0753 33.2848 21.5688 32.7451 21.2782C32.2056 20.9873 27.2558 18.1086 27.2558 18.1086Z" fill="white"/>
</mask>
<g mask="url(#mask1_125_119)">
<path d="M27.2556 18.1084L21.5846 14.8344L9.43359 7.8186V7.91991L23.4824 21.8502L27.2556 18.1084Z" fill="url(#paint1_linear_125_119)"/>
</g>
<mask id="mask2_125_119" style="mask-type:luminance" maskUnits="userSpaceOnUse" x="9" y="8" width="25" height="28">
<path d="M27.2558 18.1086L21.5848 14.8346C21.5848 14.8346 11.2535 8.86899 10.6461 8.51835C10.0387 8.16771 9.43359 8.38016 9.43359 9.11291V34.8457C9.43359 35.3951 9.8661 35.6318 10.3938 35.3274C10.9212 35.0225 21.5848 28.8656 21.5848 28.8656L27.2556 25.5918C27.2556 25.5918 32.0672 22.814 32.7067 22.4449C33.3463 22.0753 33.2848 21.5688 32.7451 21.2782C32.2056 20.9873 27.2558 18.1086 27.2558 18.1086Z" fill="white"/>
</mask>
<g mask="url(#mask2_125_119)">
<path d="M9.43359 35.7806V35.8819L21.5846 28.8659L27.2553 25.5918L23.4824 21.8506L9.43359 35.7806Z" fill="url(#paint2_linear_125_119)"/>
</g>
<mask id="mask3_125_119" style="mask-type:luminance" maskUnits="userSpaceOnUse" x="9" y="8" width="25" height="28">
<path d="M27.2558 18.1086L21.5848 14.8346C21.5848 14.8346 11.2535 8.86899 10.6461 8.51835C10.0387 8.16771 9.43359 8.38016 9.43359 9.11291V34.8457C9.43359 35.3951 9.8661 35.6318 10.3938 35.3274C10.9212 35.0225 21.5848 28.8656 21.5848 28.8656L27.2556 25.5918C27.2556 25.5918 32.0672 22.814 32.7067 22.4449C33.3463 22.0753 33.2848 21.5688 32.7451 21.2782C32.2056 20.9873 27.2558 18.1086 27.2558 18.1086Z" fill="white"/>
</mask>
<g mask="url(#mask3_125_119)">
<path d="M27.2553 18.1091L23.4821 21.8509L27.255 25.5921L33.736 21.8506L27.2553 18.1091Z" fill="url(#paint3_linear_125_119)"/>
</g>
<path d="M97.8792 27.2964C97.3515 27.2964 96.8701 27.1991 96.4341 27.0046C95.9981 26.8098 95.6318 26.5103 95.336 26.1066H95.2475C95.3065 26.5797 95.336 27.0282 95.336 27.4518V30.7859H94.1095V19.0463H95.1073L95.2769 20.1553H95.336C95.6517 19.7114 96.019 19.3915 96.4378 19.1943C96.8566 18.9971 97.3372 18.8985 97.8789 18.8985C98.9535 18.8985 99.7829 19.2659 100.367 20.0001C100.951 20.7343 101.243 21.7646 101.243 23.09C101.243 24.4207 100.946 25.4542 100.352 26.1916C99.7586 26.9283 98.9343 27.2964 97.8792 27.2964ZM97.7017 19.9408C96.8738 19.9408 96.275 20.1703 95.9054 20.6284C95.5359 21.0867 95.346 21.8163 95.336 22.8168V23.09C95.336 24.2287 95.5258 25.0431 95.9054 25.5337C96.2851 26.0242 96.8939 26.2689 97.7312 26.2689C98.4315 26.2689 98.9799 25.9859 99.3767 25.4191C99.7731 24.8525 99.9715 24.0713 99.9715 23.0752C99.9715 22.0654 99.7731 21.2898 99.3767 20.7503C98.9801 20.2103 98.4214 19.9408 97.7017 19.9408ZM104.084 27.1484H102.857V15.6456H104.084V27.1484ZM111.14 27.1484L110.895 25.9952H110.836C110.432 26.5032 110.029 26.8472 109.628 27.0264C109.226 27.2067 108.725 27.2965 108.124 27.2965C107.32 27.2965 106.691 27.0894 106.235 26.6756C105.778 26.2617 105.551 25.6731 105.551 24.9088C105.551 23.2729 106.859 22.4152 109.476 22.3361L110.852 22.2916V21.789C110.852 21.1531 110.715 20.6834 110.441 20.3807C110.168 20.0773 109.73 19.9258 109.129 19.9258C108.454 19.9258 107.69 20.1329 106.837 20.5467L106.46 19.6079C106.86 19.391 107.297 19.2211 107.773 19.0979C108.248 18.9747 108.725 18.913 109.203 18.913C110.169 18.913 110.885 19.1272 111.351 19.556C111.816 19.9849 112.049 20.6724 112.049 21.6188V27.1482H111.14L111.14 27.1484ZM108.367 26.2839C109.131 26.2839 109.731 26.0743 110.167 25.6556C110.603 25.2368 110.822 24.6501 110.822 23.8958V23.164L109.594 23.2154C108.618 23.2505 107.915 23.4015 107.484 23.6708C107.052 23.9393 106.837 24.357 106.837 24.9238C106.837 25.3672 106.971 25.705 107.24 25.9361C107.509 26.168 107.884 26.2839 108.367 26.2839ZM112.761 19.0463H114.077L115.851 23.6668C116.24 24.7217 116.482 25.483 116.576 25.9514H116.635C116.699 25.6996 116.834 25.27 117.038 24.6607C117.242 24.0519 117.912 22.1809 119.045 19.0463H120.361L116.879 28.2724C116.534 29.1841 116.131 29.8311 115.67 30.2137C115.209 30.5953 114.644 30.7859 113.974 30.7859C113.599 30.7859 113.23 30.7441 112.865 30.6605V29.6774C113.136 29.7364 113.439 29.7661 113.774 29.7661C114.617 29.7661 115.218 29.2931 115.578 28.3466L116.029 27.1936L112.761 19.0463ZM75.1468 19.7992C75.5363 20.1215 76.3497 20.7987 76.3497 22.0875C76.3497 23.3408 75.6378 23.9351 74.926 24.4935C74.7056 24.7136 74.4514 24.9516 74.4514 25.3249C74.4514 25.6969 74.7054 25.9005 74.8925 26.0532L75.5028 26.5268C76.2484 27.154 76.9256 27.7307 76.9256 28.9004C76.9256 30.4932 75.3833 32.1026 72.469 32.1026C70.0113 32.1026 68.8257 30.9336 68.8257 29.6789C68.8257 29.069 69.1293 28.2052 70.1306 27.6114C71.1806 26.9674 72.605 26.8836 73.3673 26.8315C73.1293 26.5268 72.8588 26.2047 72.8588 25.6802C72.8588 25.3925 72.9439 25.2228 73.0282 25.0185C72.8411 25.0357 72.6549 25.0527 72.4853 25.0527C70.6895 25.0527 69.6728 23.7138 69.6728 22.3926C69.6728 21.6129 70.0291 20.7481 70.7569 20.1218C71.7232 19.3254 72.8755 19.1894 73.7915 19.1894H77.2816L76.197 19.7994H75.1468L75.1468 19.7992ZM73.9431 27.324C73.8076 27.3063 73.7225 27.3063 73.5539 27.3063C73.4014 27.3063 72.485 27.3409 71.7741 27.5787C71.4014 27.7132 70.3165 28.1199 70.3165 29.3238C70.3165 30.5265 71.4864 31.392 73.2999 31.392C74.9257 31.392 75.791 30.6108 75.791 29.5611C75.791 28.6951 75.2316 28.2394 73.9431 27.324ZM74.4349 24.1035C74.8241 23.7133 74.8576 23.1716 74.8576 22.8662C74.8576 21.6463 74.1293 19.7483 72.723 19.7483C72.2819 19.7483 71.8078 19.9684 71.5366 20.3077C71.2489 20.6635 71.1633 21.1206 71.1633 21.5618C71.1633 22.697 71.8243 24.5783 73.2824 24.5783C73.7061 24.5783 74.1627 24.375 74.4349 24.1035ZM64.4778 27.0528C61.788 27.0528 60.3498 24.9546 60.3498 23.0592C60.3498 20.8425 62.1598 18.9484 64.7325 18.9484C67.2185 18.9484 68.7753 20.8934 68.7753 22.9412C68.7755 24.9369 67.2364 27.0528 64.4778 27.0528ZM66.5925 25.6824C66.9992 25.1405 67.1007 24.464 67.1007 23.8036C67.1007 22.3142 66.3901 19.4722 64.2919 19.4722C63.7337 19.4722 63.1756 19.6925 62.7696 20.0486C62.1096 20.6399 61.9906 21.3847 61.9906 22.1131C61.9906 23.7868 62.8197 26.544 64.8675 26.544C65.5272 26.544 66.2042 26.2231 66.5925 25.6824ZM55.3072 27.0528C52.6169 27.0528 51.1785 24.9546 51.1785 23.0592C51.1785 20.8425 52.9892 18.9484 55.5613 18.9484C58.048 18.9484 59.6044 20.8934 59.6044 22.9412C59.6047 24.9369 58.0654 27.0528 55.3072 27.0528ZM57.4224 25.6824C57.8284 25.1405 57.9302 24.464 57.9302 23.8036C57.9302 22.3142 57.219 19.4722 55.1208 19.4722C54.5629 19.4722 54.0043 19.6925 53.5985 20.0486C52.9386 20.6399 52.8203 21.3847 52.8203 22.1131C52.8203 23.7868 53.6489 26.544 55.697 26.544C56.357 26.544 57.0334 26.2231 57.4224 25.6824ZM49.8861 26.7874L47.4532 27.3488C46.4662 27.5022 45.582 27.6372 44.6469 27.6372C39.9513 27.6372 38.1659 24.1839 38.1659 21.4791C38.1659 18.1795 40.7001 15.1184 45.0383 15.1184C45.9572 15.1184 46.841 15.2541 47.6403 15.4754C48.916 15.8327 49.5114 16.2746 49.8858 16.5301L48.4734 17.8739L47.8784 18.0094L48.3035 17.3287C47.7254 16.7678 46.6698 15.7304 44.6633 15.7304C41.9755 15.7304 39.9508 17.7726 39.9508 20.7491C39.9508 23.9462 42.2647 26.9571 45.9722 26.9571C47.062 26.9571 47.6222 26.7363 48.1329 26.5317V23.7937L45.5648 23.9297L46.925 23.1974H50.5315L50.0897 23.6226C49.9697 23.7251 49.9532 23.7596 49.9193 23.8943C49.9016 24.0477 49.8856 24.5415 49.8856 24.7114V26.7875H49.8861V26.7874Z" fill="#F9F9F9"/>
<path d="M80.5229 26.2979C79.9613 26.2467 79.8437 26.1452 79.8437 25.481V15.8534C79.8472 15.8167 79.8494 15.7791 79.8528 15.7437C79.9214 15.1486 80.0913 15.0466 80.6193 14.74H78.1859L76.9098 15.3525H78.2103V15.3601L78.2093 15.354V25.8558C78.2093 26.1953 78.1422 26.247 77.7505 26.7567H80.7617L81.3911 26.3834C81.1022 26.3483 80.8126 26.3318 80.5229 26.2979ZM87.4447 26.4543C87.2596 26.5558 87.0737 26.6746 86.8885 26.7584C86.3301 27.0117 85.756 27.0796 85.2482 27.0796C84.7089 27.0796 83.8636 27.0446 83.0012 26.4203C81.8028 25.575 81.279 24.1222 81.279 22.8556C81.279 20.2376 83.4074 18.9538 85.1474 18.9538C85.7557 18.9538 86.3815 19.1055 86.8883 19.4272C87.7322 19.9836 87.9517 20.71 88.0693 21.0987L84.1004 22.7042L82.7994 22.8055C83.2211 24.9509 84.6738 26.2 86.2792 26.2C87.1406 26.2 87.7659 25.8966 88.34 25.6099L87.4447 26.4543ZM85.8573 21.4194C86.1777 21.3016 86.3466 21.1998 86.3466 20.9635C86.3466 20.2883 85.5868 19.5108 84.6738 19.5108C83.9973 19.5108 82.7312 20.0348 82.7312 21.8588C82.7312 22.146 82.7652 22.4499 82.7826 22.7551L85.8573 21.4194ZM89.0752 19.0694V20.184H88.9398V19.0694H88.5709V18.9538H89.4439V19.0694H89.0752ZM90.5949 20.184V19.0591H90.5887L90.2455 20.184H90.1395L89.7933 19.0591H89.7888V20.184H89.6659V18.9538H89.8766L90.1899 19.9482H90.1943L90.5029 18.9538H90.7166V20.184H90.5949Z" fill="#F9F9F9"/>
<path d="M41.5441 11.8068H40.6987C40.6987 11.6905 40.6186 11.3613 40.4583 10.8188H39.2379C39.0724 11.3524 38.9895 11.6816 38.9895 11.8068H38.1946C38.1946 11.7382 38.4001 11.1746 38.8113 10.1163C39.2224 9.05799 39.428 8.47496 39.428 8.36777H40.4265C40.4265 8.4681 40.6127 9.0425 40.9852 10.0912C41.3577 11.14 41.5441 11.7117 41.5441 11.8068ZM40.3237 10.3142C40.0225 9.40566 39.8721 8.91439 39.8721 8.84035H39.8298C39.8298 8.90898 39.6739 9.40025 39.3623 10.3142H40.3237ZM44.9502 11.8068H44.2979C44.2979 11.7345 44.0557 11.3534 43.5715 10.6632C43.0645 9.93582 42.7755 9.43863 42.7052 9.17087H42.6629C42.707 9.55641 42.7291 9.90509 42.7291 10.2169C42.7291 10.6519 42.7414 11.182 42.766 11.8071H42.1161C42.1424 11.2612 42.1557 10.6617 42.1557 10.0084C42.1557 9.36564 42.1424 8.81876 42.1161 8.36804H42.9005C42.9005 8.46148 43.1178 8.834 43.5528 9.48537C44.0159 10.1773 44.2819 10.6467 44.3505 10.8933H44.3901C44.3478 10.5007 44.3267 10.1485 44.3267 9.83675C44.3267 9.35974 44.3144 8.8699 44.2898 8.36804H44.9502C44.9254 8.80474 44.9133 9.3516 44.9133 10.0084C44.9131 10.6701 44.9254 11.2695 44.9502 11.8068ZM48.7785 9.9683C48.7785 10.4684 48.6182 10.9051 48.2978 11.2784C47.9771 11.6519 47.5281 11.8383 46.9505 11.8383C46.6899 11.8383 46.3306 11.8277 45.8728 11.8066C45.8956 11.2747 45.9072 10.675 45.9072 10.0079C45.9072 9.3671 45.8957 8.82023 45.8728 8.36753H46.3351C46.4108 8.36753 46.5234 8.36482 46.6732 8.35966C46.8227 8.35449 46.9205 8.35179 46.9663 8.35179C47.6019 8.35179 48.0627 8.51039 48.3492 8.82734C48.6354 9.1443 48.7785 9.52445 48.7785 9.9683ZM48.0575 10.0819C48.0575 9.74376 47.9589 9.45902 47.7617 9.22714C47.5645 8.99576 47.2633 8.87996 46.8583 8.87996C46.7826 8.87996 46.6788 8.88783 46.5465 8.90382C46.564 9.25616 46.5728 9.62401 46.5728 10.0079C46.5728 10.4288 46.5817 10.8461 46.5991 11.2599C46.7121 11.2827 46.8271 11.2942 46.9424 11.2944C47.3211 11.2944 47.6014 11.1766 47.7836 10.9415C47.9658 10.7064 48.0575 10.42 48.0575 10.0819ZM52.3088 11.8068H51.5268C51.3225 11.1835 51.1659 10.7987 51.0567 10.6526C50.9475 10.5063 50.7715 10.4333 50.5285 10.4333C50.4262 10.4333 50.3286 10.4342 50.2354 10.436C50.2354 10.8887 50.2433 11.3455 50.2593 11.8068H49.525C49.5479 11.2749 49.5595 10.6752 49.5595 10.0081C49.5595 9.36734 49.5479 8.82046 49.525 8.36777H49.9819C50.0348 8.36777 50.1452 8.36507 50.3134 8.3599C50.4816 8.35474 50.637 8.35201 50.7796 8.35201C51.5878 8.35201 51.9921 8.6284 51.9921 9.18143C51.9921 9.61985 51.7614 9.92525 51.3001 10.0981V10.1377C51.4779 10.1869 51.6338 10.3258 51.7676 10.5535C51.9011 10.7814 52.0816 11.1992 52.3088 11.8068ZM51.3183 9.37664C51.3183 9.02625 51.0928 8.85095 50.6421 8.85095C50.4766 8.85095 50.3303 8.86324 50.2037 8.88783C50.2231 9.16077 50.2327 9.51658 50.2327 9.955C50.3296 9.95869 50.4115 9.96017 50.4783 9.96017C51.0382 9.96041 51.3183 9.76591 51.3183 9.37664ZM56.095 10.0238C56.095 10.5643 55.9295 11.0126 55.5983 11.3684C55.2671 11.7239 54.8577 11.902 54.3701 11.902C53.9051 11.902 53.5158 11.7387 53.2026 11.4119C52.8891 11.0853 52.7324 10.6701 52.7324 10.1667C52.7324 9.62622 52.8979 9.17796 53.2291 8.82216C53.5601 8.4666 53.9695 8.28857 54.4573 8.28857C54.9223 8.28857 55.3113 8.45135 55.6249 8.77716C55.9384 9.10299 56.095 9.5183 56.095 10.0238ZM55.3662 10.1003C55.3662 9.73222 55.272 9.43371 55.0836 9.20479C54.895 8.97586 54.6627 8.86152 54.3863 8.86152C54.1291 8.86152 53.9107 8.97685 53.7312 9.20749C53.5517 9.43814 53.4615 9.72954 53.4615 10.0819C53.4615 10.448 53.5562 10.746 53.7455 10.976C53.9348 11.2059 54.1667 11.3207 54.4416 11.3207C54.6986 11.3207 54.9172 11.2049 55.0967 10.9732C55.2762 10.7419 55.3662 10.4507 55.3662 10.1003ZM57.5885 11.8068H56.841C56.8639 11.2609 56.8755 10.6614 56.8755 10.0081C56.8755 9.36535 56.8639 8.81849 56.841 8.36777H57.5885C57.5657 8.81161 57.5541 9.35822 57.5541 10.0081C57.5541 10.6718 57.5657 11.2715 57.5885 11.8068ZM61.4171 9.9683C61.4171 10.4684 61.2568 10.9051 60.9364 11.2784C60.6157 11.6519 60.1667 11.8383 59.5891 11.8383C59.3285 11.8383 58.9692 11.8277 58.5114 11.8066C58.5342 11.2747 58.5458 10.675 58.5458 10.0079C58.5458 9.3671 58.5343 8.82023 58.5114 8.36753H58.9737C59.0494 8.36753 59.162 8.36482 59.3118 8.35966C59.4613 8.35449 59.5591 8.35179 59.6049 8.35179C60.2405 8.35179 60.7013 8.51039 60.9878 8.82734C61.274 9.1443 61.4171 9.52445 61.4171 9.9683ZM60.6961 10.0819C60.6961 9.74376 60.5975 9.45902 60.4003 9.22714C60.2031 8.99576 59.9019 8.87996 59.4969 8.87996C59.4212 8.87996 59.3174 8.88783 59.1851 8.90382C59.2026 9.25616 59.2114 9.62401 59.2114 10.0079C59.2114 10.4288 59.2203 10.8461 59.2377 11.2599C59.3507 11.2827 59.4657 11.2942 59.581 11.2944C59.9596 11.2944 60.24 11.1766 60.4222 10.9415C60.6044 10.7064 60.6961 10.42 60.6961 10.0819ZM66.4962 11.8068H65.6508C65.6508 11.6905 65.5707 11.3613 65.4101 10.8188H64.1898C64.0243 11.3524 63.9414 11.6816 63.9414 11.8068H63.1467C63.1467 11.7382 63.3522 11.1746 63.7634 10.1163C64.1745 9.05799 64.3801 8.47496 64.3801 8.36777H65.3786C65.3786 8.4681 65.565 9.0425 65.9373 10.0912C66.3096 11.14 66.4962 11.7117 66.4962 11.8068ZM65.2759 10.3142C64.9746 9.40566 64.8239 8.91439 64.8239 8.84035H64.7816C64.7816 8.90898 64.6259 9.40025 64.3144 10.3142H65.2759ZM69.5772 9.26823C69.5772 9.68919 69.4208 10 69.1083 10.2006C68.7958 10.4013 68.4124 10.5018 67.958 10.5018C67.8752 10.5018 67.8164 10.5001 67.781 10.4967C67.781 10.8279 67.7906 11.2644 67.81 11.8068H67.0676C67.0905 11.2981 67.1021 10.6983 67.1021 10.0081C67.1021 9.37421 67.0905 8.82734 67.0676 8.36777H67.5272C67.5924 8.36777 67.7173 8.36507 67.9022 8.3599C68.0871 8.35474 68.2472 8.35201 68.3829 8.35201C68.7173 8.35201 69.0001 8.42775 69.2307 8.57922C69.4614 8.73071 69.5772 8.96012 69.5772 9.26823ZM68.8959 9.41355C68.8959 9.03682 68.6458 8.84824 68.1457 8.84824C68.0205 8.84824 67.8885 8.8615 67.7495 8.88783C67.769 9.22077 67.7785 9.59747 67.7785 10.0184C67.8225 10.0221 67.8737 10.0236 67.9317 10.0236C68.5745 10.0238 68.8959 9.8205 68.8959 9.41355ZM72.7453 9.26823C72.7453 9.68919 72.5889 10 72.2766 10.2006C71.9641 10.4013 71.5805 10.5018 71.1261 10.5018C71.0432 10.5018 70.9845 10.5001 70.9491 10.4967C70.9491 10.8279 70.9587 11.2644 70.9781 11.8068H70.2357C70.2586 11.2981 70.2702 10.6983 70.2702 10.0081C70.2702 9.37421 70.2586 8.82734 70.2357 8.36777H70.6953C70.7605 8.36777 70.8854 8.36507 71.0703 8.3599C71.2552 8.35474 71.4153 8.35201 71.551 8.35201C71.8854 8.35201 72.1682 8.42775 72.3988 8.57922C72.6295 8.73071 72.7453 8.96012 72.7453 9.26823ZM72.0639 9.41355C72.0639 9.03682 71.8139 8.84824 71.3137 8.84824C71.1886 8.84824 71.0565 8.8615 70.9176 8.88783C70.937 9.22077 70.9466 9.59747 70.9466 10.0184C70.9906 10.0221 71.0418 10.0236 71.0998 10.0236C71.7426 10.0238 72.0639 9.8205 72.0639 9.41355ZM77.925 10.0238C77.925 10.5643 77.7595 11.0126 77.4283 11.3684C77.0971 11.7242 76.6877 11.902 76.2001 11.902C75.7351 11.902 75.3459 11.7387 75.0326 11.4119C74.7193 11.0853 74.5625 10.6701 74.5625 10.1667C74.5625 9.62622 74.728 9.17796 75.0591 8.82216C75.3904 8.46635 75.7998 8.28857 76.2874 8.28857C76.7524 8.28857 77.1416 8.45135 77.4549 8.77716C77.7681 9.10299 77.925 9.5183 77.925 10.0238ZM77.1959 10.1003C77.1959 9.73222 77.1017 9.43371 76.9134 9.20479C76.7251 8.97586 76.4924 8.86152 76.2161 8.86152C75.9589 8.86152 75.7405 8.97685 75.561 9.20749C75.3815 9.43814 75.2915 9.72954 75.2915 10.0819C75.2915 10.448 75.3862 10.746 75.5755 10.976C75.7648 11.2059 75.9967 11.3207 76.2714 11.3207C76.5286 11.3207 76.7469 11.2049 76.9264 10.9733C77.1062 10.7419 77.1959 10.4507 77.1959 10.1003ZM81.5052 11.8068H80.8528C80.8528 11.7345 80.6109 11.3534 80.1265 10.6632C79.6195 9.93582 79.3305 9.43863 79.2602 9.17087H79.2179C79.2619 9.55641 79.2841 9.90509 79.2841 10.2169C79.2841 10.6519 79.2964 11.182 79.321 11.8071H78.6711C78.6974 11.2612 78.7107 10.6617 78.7107 10.0084C78.7107 9.36564 78.6974 8.81876 78.6711 8.36804H79.4555C79.4555 8.46148 79.6731 8.834 80.1078 9.48537C80.5711 10.1773 80.8369 10.6467 80.9055 10.8933H80.9451C80.9028 10.5007 80.8817 10.1485 80.8817 9.83675C80.8817 9.35974 80.8694 8.8699 80.8448 8.36804H81.5052C81.4804 8.80474 81.4683 9.3516 81.4683 10.0084C81.4683 10.6701 81.4806 11.2695 81.5052 11.8068Z" fill="#F9F9FA"/>
<defs>
<linearGradient id="paint0_linear_125_119" x1="16.458" y1="7.91996" x2="16.458" y2="35.7802" gradientUnits="userSpaceOnUse">
<stop stop-color="#257CB0"/>
<stop offset="0.286" stop-color="#4A93B5"/>
<stop offset="0.767" stop-color="#78BCBB"/>
<stop offset="1" stop-color="#89CFBD"/>
</linearGradient>
<linearGradient id="paint1_linear_125_119" x1="9.43382" y1="14.8342" x2="27.2558" y2="14.8342" gradientUnits="userSpaceOnUse">
<stop stop-color="#52C1AD"/>
<stop offset="1" stop-color="#DEE89A"/>
</linearGradient>
<linearGradient id="paint2_linear_125_119" x1="18.3444" y1="21.8506" x2="18.3444" y2="35.8819" gradientUnits="userSpaceOnUse">
<stop stop-color="#EC413D"/>
<stop offset="0.167" stop-color="#DA4452"/>
<stop offset="0.575" stop-color="#B0487A"/>
<stop offset="0.862" stop-color="#954A92"/>
<stop offset="1" stop-color="#8A4A9D"/>
</linearGradient>
<linearGradient id="paint3_linear_125_119" x1="28.6091" y1="18.1092" x2="28.6091" y2="25.5919" gradientUnits="userSpaceOnUse">
<stop stop-color="#F58879"/>
<stop offset="0.119" stop-color="#F69079"/>
<stop offset="0.713" stop-color="#FCB877"/>
<stop offset="1" stop-color="#FEC874"/>
</linearGradient>
</defs>
</svg>
