<svg width="144" height="42" viewBox="0 0 144 42" fill="none" xmlns="http://www.w3.org/2000/svg">
<path d="M144.001 37.0164C144.001 37.5583 143.894 38.095 143.686 38.5956C143.479 39.0962 143.174 39.551 142.791 39.934C142.407 40.317 141.952 40.6207 141.451 40.8277C140.95 41.0347 140.413 41.1409 139.871 41.1404H4.73703C3.64176 41.1415 2.59088 40.7077 1.81549 39.9343C1.04011 39.161 0.603722 38.1114 0.602295 37.0164V4.12933C0.603722 3.03385 1.03994 1.98372 1.81517 1.2095C2.59039 0.435291 3.64126 0.000284351 4.73703 0H139.87C140.413 -1.84434e-08 140.95 0.106816 141.451 0.314347C141.952 0.521878 142.407 0.826059 142.79 1.20952C143.174 1.59297 143.478 2.0482 143.686 2.54918C143.893 3.05017 144 3.58711 144 4.12933L144.001 37.0164Z" fill="white"/>
<path d="M144.001 37.0164C144.001 37.5583 143.894 38.095 143.686 38.5956C143.479 39.0962 143.174 39.551 142.791 39.934C142.407 40.317 141.952 40.6207 141.451 40.8277C140.95 41.0347 140.413 41.1409 139.871 41.1404H4.73703C3.64176 41.1415 2.59088 40.7077 1.81549 39.9343C1.04011 39.161 0.603722 38.1114 0.602295 37.0164V4.12933C0.603722 3.03385 1.03994 1.98372 1.81517 1.2095C2.59039 0.435291 3.64126 0.000284351 4.73703 0H139.87C140.413 -1.84434e-08 140.95 0.106816 141.451 0.314347C141.952 0.521878 142.407 0.826059 142.79 1.20952C143.174 1.59297 143.478 2.0482 143.686 2.54918C143.893 3.05017 144 3.58711 144 4.12933L144.001 37.0164Z" fill="black"/>
<path d="M32.0918 20.3443C32.0606 16.874 34.9341 15.1856 35.0655 15.107C33.4381 12.7349 30.9157 12.4108 30.0293 12.385C27.9108 12.1621 25.8558 13.6523 24.7766 13.6523C23.6759 13.6523 22.014 12.4065 20.2229 12.4431C17.9181 12.4787 15.7619 13.8128 14.5793 15.8844C12.1387 20.1085 13.9589 26.316 16.2971 29.7303C17.4668 31.4036 18.8336 33.2696 20.6225 33.2039C22.3727 33.1328 23.0265 32.0895 25.1385 32.0895C27.2312 32.0895 27.8451 33.2039 29.6696 33.1619C31.5479 33.1328 32.7305 31.4822 33.8592 29.7949C35.2109 27.8794 35.7538 25.9908 35.7753 25.8939C35.7322 25.8788 32.1285 24.5027 32.0918 20.3443ZM28.6453 10.1389C29.5867 8.96202 30.2307 7.3609 30.0519 5.73608C28.6895 5.79638 26.9856 6.67824 26.0044 7.82928C25.1364 8.84358 24.3609 10.5061 24.5612 12.0695C26.0917 12.1836 27.6631 11.2975 28.6453 10.1389Z" fill="white"/>
<path d="M57.4421 32.9631H54.9962L53.6564 28.7541H48.9993L47.723 32.9631H45.3417L49.9568 18.6337H52.8066L57.4421 32.9631ZM53.2525 26.9882L52.0408 23.2465C51.9127 22.8643 51.6714 21.9641 51.3181 20.5471H51.275C51.1329 21.1566 50.9056 22.0567 50.5944 23.2465L49.4032 26.9882H53.2525ZM69.2874 27.6698C69.2874 29.4271 68.8102 30.8161 67.8549 31.8357C66.9997 32.7434 65.9367 33.1968 64.669 33.1968C63.3001 33.1968 62.3157 32.709 61.718 31.7313V37.1527H59.4217V26.0267C59.4217 24.923 59.3926 23.7914 59.3366 22.6306H61.3561L61.4842 24.2684H61.5273C62.2931 23.0344 63.4552 22.4174 65.0148 22.4174C66.234 22.4174 67.2518 22.8987 68.066 23.8624C68.8792 24.8283 69.2874 26.0967 69.2874 27.6698ZM66.948 27.7538C66.948 26.7481 66.7219 25.919 66.2674 25.2654C65.7708 24.586 65.1042 24.2458 64.2684 24.2458C63.7019 24.2458 63.187 24.4353 62.7271 24.8089C62.2662 25.1858 61.9646 25.6778 61.8235 26.2873C61.7605 26.5152 61.7247 26.7498 61.7169 26.9861V28.7099C61.7169 29.4604 61.9474 30.0946 62.4083 30.6136C62.8693 31.1305 63.4681 31.39 64.2048 31.39C65.0697 31.39 65.7428 31.0551 66.2243 30.3907C66.7068 29.7242 66.948 28.8456 66.948 27.7538ZM81.1746 27.6698C81.1746 29.4271 80.6974 30.8161 79.7421 31.8357C78.8859 32.7434 77.8239 33.1968 76.5552 33.1968C75.1863 33.1968 74.2019 32.709 73.6041 31.7313V37.1527H71.3079V26.0267C71.3079 24.923 71.2788 23.7914 71.2228 22.6306H73.2422L73.3704 24.2684H73.4135C74.1782 23.0344 75.3403 22.4174 76.9009 22.4174C78.119 22.4174 79.1368 22.8987 79.9532 23.8624C80.7653 24.8283 81.1746 26.0967 81.1746 27.6698ZM78.8342 27.7538C78.8342 26.7481 78.6069 25.919 78.1524 25.2654C77.6559 24.586 76.9914 24.2458 76.1556 24.2458C75.5891 24.2458 75.0743 24.4353 74.6122 24.8089C74.1512 25.1858 73.8507 25.6778 73.7096 26.2873C73.6396 26.5715 73.6019 26.803 73.6019 26.9861V28.7099C73.6019 29.4604 73.8335 30.0946 74.2923 30.6136C74.7533 31.1294 75.3521 31.39 76.091 31.39C76.9569 31.39 77.6301 31.0551 78.1104 30.3907C78.5929 29.7242 78.8342 28.8456 78.8342 27.7538ZM94.4652 28.9436C94.4652 30.1636 94.0387 31.1552 93.191 31.9208C92.2583 32.7564 90.9562 33.1752 89.2868 33.1752C87.7445 33.1752 86.508 32.878 85.5753 32.2826L86.1063 30.3692C87.1133 30.9657 88.2194 31.2629 89.4236 31.2629C90.2895 31.2629 90.9626 31.0669 91.443 30.6782C91.9244 30.2885 92.1678 29.7673 92.1678 29.117C92.1678 28.5344 91.9664 28.0467 91.5712 27.6494C91.1737 27.2531 90.5168 26.8838 89.5937 26.5446C87.0842 25.6089 85.8284 24.2404 85.8284 22.4401C85.8284 21.2642 86.2722 20.3016 87.1575 19.549C88.0428 18.7974 89.2168 18.4216 90.6772 18.4216C91.9815 18.4216 93.0682 18.6488 93.9309 19.1021L93.3547 20.9735C92.5427 20.5342 91.6261 20.3146 90.6008 20.3146C89.7908 20.3146 89.1554 20.5137 88.7009 20.91C88.3185 21.2642 88.1247 21.696 88.1247 22.2086C88.1247 22.7738 88.3455 23.2433 88.7849 23.6116C89.1662 23.9507 89.8619 24.32 90.8679 24.7163C92.1021 25.2137 93.009 25.793 93.5895 26.4585C94.1744 27.1239 94.4652 27.9541 94.4652 28.9436ZM102.077 24.3534H99.5455V29.37C99.5455 30.6459 99.9914 31.2823 100.885 31.2823C101.296 31.2823 101.636 31.2478 101.905 31.1757L101.969 32.919C101.516 33.088 100.921 33.1731 100.183 33.1731C99.2763 33.1731 98.5676 32.8963 98.056 32.3429C97.5466 31.7894 97.2902 30.8624 97.2902 29.5573V24.3491H95.7824V22.6263H97.2902V20.7345L99.5455 20.054V22.6263H102.077V24.3534ZM113.474 27.7118C113.474 29.3 113.019 30.6039 112.112 31.6236C111.163 32.6735 109.901 33.1968 108.328 33.1968C106.809 33.1968 105.602 32.6939 104.701 31.6893C103.801 30.6825 103.351 29.4141 103.351 27.8841C103.351 26.283 103.816 24.9715 104.743 23.9518C105.673 22.931 106.924 22.4207 108.498 22.4207C110.014 22.4207 111.232 22.9246 112.154 23.9303C113.035 24.9058 113.474 26.1656 113.474 27.7118ZM111.093 27.7646C111.093 26.8181 110.889 26.0062 110.478 25.3268C109.997 24.5063 109.308 24.0961 108.415 24.0961C107.495 24.0961 106.79 24.5063 106.309 25.3268C105.898 26.0062 105.693 26.8321 105.693 27.8076C105.693 28.7552 105.898 29.5692 106.309 30.2465C106.806 31.0669 107.498 31.4772 108.396 31.4772C109.273 31.4772 109.962 31.0583 110.459 30.226C110.881 29.5304 111.093 28.7132 111.093 27.7646ZM120.941 24.6495C120.702 24.6064 120.46 24.5852 120.217 24.586C119.409 24.586 118.785 24.8896 118.345 25.5012C117.964 26.0396 117.772 26.7201 117.772 27.5417V32.9631H115.476V25.8846C115.478 24.7999 115.456 23.7154 115.409 22.6317H117.409L117.493 24.6086H117.557C117.8 23.9292 118.181 23.3811 118.705 22.9709C119.184 22.6124 119.766 22.4183 120.365 22.4174C120.577 22.4174 120.768 22.4325 120.939 22.4594L120.941 24.6495ZM131.21 27.308C131.216 27.657 131.188 28.0057 131.126 28.3492H124.238C124.263 29.37 124.597 30.1517 125.237 30.6901C125.818 31.1703 126.568 31.4115 127.49 31.4115C128.51 31.4115 129.441 31.25 130.278 30.9237L130.637 32.5162C129.659 32.9426 128.505 33.1548 127.173 33.1548C125.57 33.1548 124.312 32.6831 123.396 31.7421C122.483 30.7999 122.025 29.5337 122.025 27.9476C122.025 26.3906 122.451 25.0932 123.303 24.0584C124.195 22.9537 125.4 22.4013 126.916 22.4013C128.406 22.4013 129.533 22.9537 130.299 24.0584C130.905 24.9338 131.21 26.0192 131.21 27.308ZM129.021 26.7126C129.037 26.031 128.886 25.4442 128.575 24.9478C128.177 24.3082 127.566 23.9895 126.746 23.9895C125.995 23.9895 125.384 24.3007 124.918 24.9252C124.536 25.4216 124.309 26.0181 124.239 26.7104L129.021 26.7126Z" fill="white"/>
<path d="M48.3368 13.5679C47.6981 13.5679 47.1456 13.5367 46.6857 13.4839V6.55611C47.3289 6.45677 47.9789 6.40781 48.6297 6.40967C51.2631 6.40967 52.4758 7.705 52.4758 9.8165C52.4758 12.2521 51.0433 13.5679 48.3368 13.5679ZM48.7223 7.29799C48.3669 7.29799 48.0643 7.31952 47.8133 7.3712V12.6376C47.949 12.6591 48.2097 12.6688 48.5759 12.6688C50.3013 12.6688 51.2835 11.6868 51.2835 9.84772C51.2835 8.20784 50.395 7.29799 48.7223 7.29799ZM56.2551 13.6206C54.771 13.6206 53.8092 12.5127 53.8092 11.0085C53.8092 9.44071 54.7914 8.32305 56.3391 8.32305C57.8017 8.32305 58.7851 9.37826 58.7851 10.9255C58.7851 12.5127 57.7716 13.6206 56.2551 13.6206ZM56.2982 9.14784C55.4829 9.14784 54.9605 9.91017 54.9605 10.9762C54.9605 12.0217 55.4936 12.784 56.2874 12.784C57.0812 12.784 57.6143 11.9689 57.6143 10.9546C57.6143 9.92094 57.092 9.14784 56.2982 9.14784ZM67.2484 8.42749L65.6598 13.5054H64.6247L63.9667 11.3003C63.803 10.7609 63.6668 10.2135 63.5585 9.66037H63.5369C63.454 10.2138 63.2967 10.7683 63.1298 11.3003L62.4297 13.5054H61.3839L59.889 8.42749H61.049L61.6241 10.8416C61.7598 11.4165 61.874 11.9592 61.9688 12.4718H61.9903C62.0732 12.0443 62.2089 11.5102 62.4082 10.8523L63.1298 8.42857H64.0496L64.74 10.8006C64.9069 11.3756 65.0426 11.9398 65.1482 12.4728H65.1783C65.2516 11.9506 65.3668 11.3961 65.523 10.8006L66.1401 8.42857L67.2484 8.42749ZM73.0967 13.5054H71.9679V10.5896C71.9679 9.69159 71.6233 9.24151 70.9437 9.24151C70.2748 9.24151 69.8149 9.8165 69.8149 10.4852V13.5054H68.6862V9.87895C68.6862 9.42994 68.6755 8.94864 68.6442 8.42642H69.6372L69.69 9.21029H69.7213C70.025 8.66761 70.641 8.32305 71.3314 8.32305C72.3977 8.32305 73.0977 9.13815 73.0977 10.4647L73.0967 13.5054ZM76.2093 13.5054H75.0795V6.09741H76.2093V13.5054ZM80.3246 13.6206C78.8416 13.6206 77.8787 12.5127 77.8787 11.0085C77.8787 9.44071 78.8609 8.32305 80.4076 8.32305C81.8713 8.32305 82.8535 9.37826 82.8535 10.9255C82.8546 12.5127 81.84 13.6206 80.3246 13.6206ZM80.3666 9.14784C79.5513 9.14784 79.029 9.91017 79.029 10.9762C79.029 12.0217 79.5632 12.784 80.3548 12.784C81.1496 12.784 81.6817 11.9689 81.6817 10.9546C81.6828 9.92094 81.1615 9.14784 80.3666 9.14784ZM87.3038 13.5054L87.222 12.9208H87.1918C86.8472 13.3913 86.3442 13.6206 85.7066 13.6206C84.7965 13.6206 84.1503 12.9832 84.1503 12.1261C84.1503 10.8728 85.237 10.2246 87.1186 10.2246V10.1309C87.1186 9.46225 86.7642 9.12738 86.0641 9.12738C85.5633 9.12738 85.1239 9.25336 84.7372 9.50424L84.5078 8.76236C84.9774 8.46949 85.5633 8.32305 86.2515 8.32305C87.5785 8.32305 88.2484 9.02293 88.2484 10.4238V12.2941C88.2484 12.8066 88.271 13.2039 88.3216 13.5065L87.3038 13.5054ZM87.1487 10.9762C85.8951 10.9762 85.2661 11.2798 85.2661 12.0001C85.2661 12.5331 85.5903 12.7937 86.0405 12.7937C86.6145 12.7937 87.1487 12.3555 87.1487 11.76V10.9762ZM93.7294 13.5054L93.6766 12.6903H93.6454C93.3212 13.3062 92.7762 13.6206 92.0148 13.6206C90.7902 13.6206 89.8833 12.5439 89.8833 11.0289C89.8833 9.44071 90.8236 8.32197 92.1074 8.32197C92.787 8.32197 93.2684 8.55132 93.5398 9.01217H93.5625V6.09741H94.6923V12.1369C94.6923 12.6279 94.7041 13.0877 94.7343 13.5054H93.7294ZM93.5625 10.5175C93.5625 9.80681 93.0918 9.2006 92.3734 9.2006C91.5365 9.2006 91.025 9.94248 91.025 10.9869C91.025 12.0109 91.5559 12.7119 92.3508 12.7119C93.0606 12.7119 93.5625 12.0949 93.5625 11.3638V10.5175ZM101.856 13.6206C100.373 13.6206 99.4107 12.5127 99.4107 11.0085C99.4107 9.44071 100.393 8.32305 101.94 8.32305C103.403 8.32305 104.386 9.37826 104.386 10.9255C104.387 12.5127 103.373 13.6206 101.856 13.6206ZM101.898 9.14784C101.083 9.14784 100.561 9.91017 100.561 10.9762C100.561 12.0217 101.094 12.784 101.887 12.784C102.682 12.784 103.214 11.9689 103.214 10.9546C103.216 9.92094 102.694 9.14784 101.898 9.14784ZM110.456 13.5054H109.326V10.5896C109.326 9.69159 108.981 9.24151 108.302 9.24151C107.633 9.24151 107.174 9.8165 107.174 10.4852V13.5054H106.044V9.87895C106.044 9.42994 106.033 8.94864 106.002 8.42642H106.995L107.048 9.21029H107.079C107.382 8.66761 107.999 8.32197 108.688 8.32197C109.755 8.32197 110.456 9.13707 110.456 10.4636V13.5054ZM118.05 9.27382H116.808V11.7396C116.808 12.3673 117.026 12.6806 117.465 12.6806C117.664 12.6806 117.831 12.6591 117.966 12.6279L117.997 13.485C117.778 13.569 117.485 13.611 117.121 13.611C116.232 13.611 115.7 13.12 115.7 11.8343V9.27382H114.959V8.42749H115.7V7.49718L116.808 7.16231V8.42642H118.05V9.27382ZM124.025 13.5054H122.898V10.6111C122.898 9.70236 122.554 9.24259 121.873 9.24259C121.289 9.24259 120.744 9.63991 120.744 10.4442V13.5054H119.616V6.09741H120.744V9.14784H120.766C121.122 8.59439 121.636 8.32197 122.293 8.32197C123.368 8.32197 124.025 9.15753 124.025 10.4852V13.5054ZM130.147 11.2378H126.76C126.781 12.1993 127.418 12.742 128.36 12.742C128.861 12.742 129.322 12.658 129.729 12.5019L129.905 13.2858C129.424 13.4947 128.859 13.5991 128.201 13.5991C126.612 13.5991 125.672 12.5956 125.672 11.0397C125.672 9.4827 126.635 8.31228 128.074 8.31228C129.372 8.31228 130.186 9.27382 130.186 10.7263C130.193 10.8978 130.18 11.0694 130.147 11.2378ZM129.112 10.4335C129.112 9.6496 128.717 9.09615 127.995 9.09615C127.347 9.09615 126.834 9.66037 126.761 10.4335H129.112Z" fill="white"/>
</svg>
