<svg width="170" height="18" viewBox="0 0 170 18" fill="none" xmlns="http://www.w3.org/2000/svg">
<path fill-rule="evenodd" clip-rule="evenodd" d="M21.4553 0.400885C21.5772 0.411474 21.7468 0.866798 24.3815 8.19434C25.9242 12.4776 27.2442 16.136 27.4509 16.692H23.9256L22.0702 11.334L19.1015 11.3763C17.4688 11.3975 16.1223 11.4293 16.1064 11.4504C16.0905 11.4716 15.6505 12.6629 14.1714 16.6972L12.0775 16.692L15.237 8.81379C16.9758 4.48292 18.4018 0.935626 18.4018 0.930331C18.4071 0.919742 19.0697 0.79797 19.8702 0.655019C20.6707 0.512068 21.3864 0.39559 21.4553 0.400885ZM16.7107 9.74562C16.6948 9.79326 17.1984 9.80915 19.1015 9.80915C21.1478 9.80915 21.5136 9.79856 21.503 9.73503C21.4924 9.69267 20.9782 8.17845 20.3579 6.37304C19.743 4.56233 19.2129 3.08518 19.1864 3.08518C19.1652 3.08518 18.5979 4.56763 17.9353 6.38363C17.2726 8.19434 16.7213 9.70855 16.7107 9.74562ZM6.68615 0.602074C7.20037 0.59678 7.91603 0.623252 8.27651 0.655019C8.63169 0.686786 9.29434 0.766203 9.75024 0.824442C10.2061 0.887975 10.5931 0.951509 10.609 0.967392C10.6249 0.983276 10.5242 1.52331 10.3864 2.17453C10.1584 3.27048 10.1372 3.3552 10.0365 3.33402C9.97819 3.31813 9.65482 3.23342 9.32084 3.14342C8.98687 3.05341 8.37723 2.92105 7.96904 2.84693C7.56085 2.7781 6.93001 2.69339 6.56423 2.66162C6.08182 2.61927 5.73194 2.61927 5.28134 2.65633C4.92616 2.68809 4.52857 2.76222 4.36423 2.82046C4.17339 2.88928 4.02496 2.98458 3.94014 3.10106C3.86592 3.19107 3.7705 3.39226 3.72809 3.53521C3.68038 3.68345 3.62737 3.99053 3.61146 4.22349C3.59026 4.54645 3.60616 4.72646 3.67508 4.96471C3.7493 5.22944 3.82351 5.34062 4.12038 5.63182C4.38544 5.90183 4.59749 6.04478 5.00038 6.24597C5.29194 6.39422 5.997 6.68541 6.56423 6.89719C7.13145 7.10897 7.83651 7.38428 8.12808 7.51664C8.41964 7.64901 8.79073 7.82902 8.94976 7.91373C9.1088 8.00374 9.39506 8.18904 9.5859 8.33199C9.77675 8.46965 10.0365 8.69731 10.169 8.83497C10.3016 8.97792 10.4871 9.20028 10.5772 9.33265C10.6673 9.46501 10.8105 9.71385 10.8953 9.88857C10.9854 10.0633 11.0967 10.328 11.1392 10.471C11.1869 10.6192 11.2505 10.868 11.2823 11.0269C11.3141 11.1857 11.3406 11.5775 11.3406 11.9005C11.3406 12.2658 11.3141 12.6205 11.2558 12.8535C11.2081 13.0599 11.0914 13.3882 10.996 13.5947C10.9006 13.8012 10.731 14.1083 10.609 14.283C10.4924 14.4577 10.2698 14.7383 10.1107 14.913C9.95169 15.0824 9.62301 15.3736 9.37386 15.5642C9.1247 15.7495 8.72181 16.0037 8.47266 16.1307C8.2235 16.2578 7.84181 16.4272 7.62446 16.5066C7.40712 16.5861 7.02543 16.6972 6.77627 16.7555C6.4529 16.8296 6.05001 16.8667 5.34495 16.8878C4.73532 16.9037 4.15219 16.8931 3.80761 16.8561C3.50014 16.819 3.04954 16.7449 2.80038 16.6867C2.55123 16.6284 2.15894 16.5225 1.92569 16.4484C1.69243 16.369 1.25244 16.2049 0.944967 16.0725C0.637498 15.9401 0.367137 15.8184 0.345933 15.7972C0.319427 15.7813 0.473161 15.2413 0.679908 14.6006C0.891955 13.96 1.06689 13.4306 1.0722 13.4253C1.0722 13.42 1.32665 13.5417 1.63412 13.69C1.94159 13.8435 2.4293 14.0553 2.72087 14.1612C3.01243 14.2671 3.44183 14.4153 3.67508 14.4842C3.90833 14.5583 4.34833 14.6695 4.6558 14.7383C5.0905 14.8283 5.37676 14.8548 5.95459 14.8548C6.36278 14.8548 6.85049 14.823 7.04133 14.7912C7.23218 14.7542 7.49193 14.6959 7.62446 14.6536C7.7676 14.6112 7.93724 14.5 8.05386 14.3783C8.15458 14.2671 8.29241 14.0394 8.35603 13.8753C8.41964 13.7059 8.49386 13.42 8.52567 13.24C8.55217 13.0547 8.57868 12.7529 8.57868 12.5623C8.57868 12.3717 8.54687 12.1017 8.50446 11.9534C8.46205 11.8105 8.35073 11.5881 8.26591 11.4663C8.17579 11.3392 7.95314 11.1275 7.7729 10.9951C7.58736 10.8627 7.25868 10.6616 7.04133 10.5504C6.82399 10.4445 6.17724 10.1798 5.61001 9.96798C5.04279 9.7615 4.31652 9.4703 3.99315 9.32735C3.67508 9.1844 3.22448 8.95674 2.99653 8.81379C2.76858 8.67613 2.4134 8.41141 2.20665 8.22081C1.9999 8.03021 1.72954 7.73372 1.60231 7.559C1.48039 7.38428 1.30545 7.08779 1.22063 6.89719C1.13051 6.70659 1.02448 6.4101 0.976774 6.23538C0.923762 6.06067 0.87075 5.63182 0.854847 5.28238C0.833642 4.7847 0.844244 4.57292 0.91316 4.3029C0.960871 4.1123 1.0881 3.77875 1.18882 3.56168C1.29485 3.34461 1.48039 3.02164 1.60231 2.84693C1.72954 2.67221 1.984 2.38631 2.16954 2.21159C2.35508 2.03687 2.67846 1.78274 2.8799 1.65038C3.08665 1.51272 3.39942 1.32742 3.58496 1.23741C3.7652 1.1474 4.12038 1.00445 4.38014 0.914448C4.63459 0.829736 5.04279 0.723847 5.29194 0.681491C5.5517 0.639136 6.13483 0.607369 6.68615 0.602074ZM34.422 0.655019C35.2384 0.655019 36.1555 0.676197 36.4629 0.702669C36.7704 0.734436 37.2846 0.803264 37.6027 0.861503C37.9208 0.919742 38.3979 1.02563 38.6629 1.09975C38.928 1.17917 39.3203 1.31153 39.5376 1.39624C39.755 1.48625 40.1367 1.66626 40.3805 1.80392C40.6244 1.94157 41.0167 2.21159 41.2552 2.40219C41.4885 2.59279 41.833 2.92634 42.0133 3.14342C42.1988 3.36049 42.4639 3.7364 42.6123 3.98524C42.7607 4.23408 42.9569 4.62587 43.0417 4.85882C43.1318 5.09178 43.2644 5.49945 43.328 5.75888C43.3969 6.01831 43.4817 6.43657 43.5188 6.68541C43.5559 6.94484 43.5877 7.59606 43.5824 8.22081C43.5824 8.81908 43.5559 9.50736 43.5188 9.7562C43.487 10.005 43.4075 10.4551 43.3492 10.7622C43.2856 11.0692 43.153 11.5669 43.0523 11.874C42.9516 12.1811 42.7501 12.6682 42.5964 12.9594C42.448 13.2506 42.1882 13.6688 42.0239 13.8859C41.8595 14.103 41.5203 14.4789 41.2711 14.7224C41.0167 14.9607 40.6032 15.2942 40.3434 15.4583C40.0889 15.6225 39.6914 15.8501 39.4581 15.956C39.2248 16.0672 38.8061 16.2313 38.5304 16.3213C38.2547 16.4166 37.82 16.5384 37.5603 16.5914C37.3058 16.6443 36.7969 16.729 36.4205 16.7714C35.9911 16.8243 35.2702 16.8508 34.422 16.8508C33.6904 16.8508 32.6196 16.8243 32.0364 16.7978C31.4533 16.7714 30.6528 16.7237 30.2605 16.692C29.8683 16.6602 29.4919 16.6231 29.3063 16.5861V0.94092L29.582 0.903859C29.7357 0.882681 30.1863 0.840325 30.5786 0.808558C30.9709 0.776792 31.6654 0.729141 32.116 0.707964C32.5666 0.686786 33.6056 0.660313 34.422 0.655019ZM32.6567 2.37043C32.609 2.3916 32.5931 3.71522 32.5931 8.75026C32.5931 14.7542 32.5984 15.1036 32.6832 15.1301C32.7362 15.1407 33.1126 15.1777 33.5208 15.2148C34.0668 15.2572 34.5068 15.2572 35.1906 15.2148C35.6996 15.183 36.3251 15.1248 36.5796 15.0771C36.8393 15.0348 37.2316 14.9289 37.4543 14.8389C37.6822 14.7542 37.995 14.6006 38.1434 14.4947C38.2971 14.3942 38.5675 14.1612 38.7477 13.9812C38.9757 13.7482 39.14 13.5047 39.3044 13.1711C39.4316 12.9117 39.5959 12.4776 39.6702 12.2181C39.7444 11.9587 39.8557 11.4081 39.9193 11.0004C40.0147 10.3757 40.0306 10.0103 40.0359 8.69731C40.0412 7.60665 40.02 7.01367 39.9723 6.73836C39.9299 6.52129 39.8504 6.15067 39.7921 5.91772C39.7338 5.68476 39.6118 5.32474 39.5217 5.12355C39.4316 4.92236 39.2726 4.60998 39.1718 4.43527C39.0711 4.26055 38.7849 3.91111 38.5357 3.66227C38.2441 3.37637 37.942 3.13283 37.7087 3.00047C37.502 2.88928 37.1468 2.73045 36.9135 2.64574C36.6803 2.56632 36.2244 2.44984 35.9063 2.3969C35.5882 2.34395 34.9892 2.28571 34.581 2.26983C34.1728 2.25924 33.5897 2.26983 33.2822 2.2963C32.9748 2.32278 32.6938 2.35984 32.6567 2.37043ZM54.0894 0.655019C54.6142 0.655019 55.2556 0.676197 55.5207 0.702669C55.7858 0.734436 56.1887 0.792675 56.4219 0.840325C56.6552 0.887975 57.074 0.999159 57.3496 1.08387C57.6253 1.17388 58.0441 1.33271 58.2773 1.44389C58.5106 1.55508 58.9135 1.78803 59.1785 1.96275C59.4542 2.14806 59.8571 2.4869 60.138 2.7728C60.4031 3.04812 60.7424 3.46109 60.8961 3.69404C61.0498 3.927 61.2513 4.28702 61.352 4.48821C61.4474 4.6894 61.6012 5.0759 61.6913 5.33533C61.7867 5.59475 61.9192 6.09773 61.9882 6.44716C62.0571 6.7966 62.1419 7.45311 62.1737 7.90314C62.2108 8.47494 62.2108 8.95674 62.1737 9.49148C62.1472 9.91504 62.0836 10.4498 62.0465 10.6827C62.0041 10.9157 61.9457 11.2122 61.9139 11.3445C61.8874 11.4769 61.7973 11.784 61.7178 12.0328C61.6436 12.2817 61.4898 12.6735 61.3838 12.9064C61.2778 13.1394 61.0498 13.5365 60.8855 13.7959C60.7212 14.05 60.3978 14.4524 60.1698 14.6906C59.9472 14.9236 59.5814 15.2519 59.3641 15.416C59.1467 15.5801 58.7279 15.8342 58.4364 15.9878C58.1448 16.136 57.726 16.3213 57.5087 16.4008C57.2913 16.4749 56.9096 16.5914 56.6605 16.6496C56.4113 16.7078 55.9607 16.7873 55.6532 16.8296C55.3458 16.8667 54.6725 16.9037 54.153 16.9037C53.6282 16.9037 52.9549 16.872 52.6157 16.8243C52.2923 16.782 51.7887 16.6867 51.5024 16.6125C51.2214 16.5384 50.7655 16.3849 50.4952 16.2684C50.2301 16.1519 49.8537 15.9613 49.6629 15.8501C49.472 15.7389 49.1275 15.4954 48.8995 15.3101C48.6663 15.1248 48.3482 14.8177 48.1892 14.6271C48.0248 14.4365 47.7969 14.1294 47.6749 13.9388C47.5477 13.7482 47.3781 13.4517 47.2933 13.277C47.2031 13.1023 47.0653 12.7793 46.9911 12.5623C46.9116 12.3452 46.7896 11.9375 46.7207 11.6622C46.6518 11.3869 46.5511 10.8839 46.4981 10.5504C46.4292 10.095 46.408 9.62384 46.408 8.69731C46.408 7.77607 46.4292 7.30487 46.4981 6.87072C46.5511 6.54776 46.6465 6.06067 46.7154 5.78536C46.7896 5.51004 46.901 5.12884 46.9752 4.93824C47.0441 4.74764 47.1925 4.41409 47.3039 4.19702C47.4152 3.97994 47.6007 3.65698 47.7227 3.48226C47.8393 3.30755 48.0725 3.01106 48.2316 2.82046C48.3959 2.62985 48.7405 2.31748 49.0055 2.11629C49.2653 1.9204 49.6788 1.65567 49.928 1.52861C50.1771 1.40154 50.58 1.22682 50.8292 1.13682C51.0783 1.0521 51.5183 0.930331 51.8099 0.866798C52.1014 0.803264 52.5202 0.734436 52.7376 0.707964C52.9549 0.681491 53.5646 0.660313 54.0894 0.655019ZM52.446 2.68809C52.2128 2.73574 51.8417 2.84163 51.6243 2.92105C51.407 3.00047 51.1048 3.14342 50.9617 3.23872C50.8132 3.32872 50.6171 3.51932 50.5217 3.65698C50.4263 3.79464 50.2937 4.08583 50.2248 4.3029C50.1506 4.51998 50.0605 4.91706 50.0128 5.17649C49.9704 5.43592 49.9067 5.93889 49.8696 6.28833C49.8325 6.63776 49.806 7.60136 49.8007 8.43259C49.8007 9.60266 49.8219 10.095 49.8961 10.6298C49.9492 11.0057 50.0499 11.5457 50.1188 11.821C50.193 12.1069 50.3786 12.5887 50.5482 12.9329C50.8079 13.4623 50.9034 13.6 51.2745 13.9706C51.5925 14.283 51.8046 14.4471 52.1014 14.59C52.3188 14.6959 52.6899 14.8389 52.9231 14.8971C53.2783 14.9924 53.4957 15.0136 54.2749 15.0136C54.9058 15.0136 55.3617 14.9818 55.7062 14.9236C55.9819 14.876 56.4378 14.7595 56.7135 14.6642C56.9891 14.5689 57.3549 14.41 57.5246 14.3094C57.726 14.193 57.8797 14.05 57.9646 13.9124C58.0335 13.7959 58.1395 13.5576 58.1978 13.3829C58.2614 13.2082 58.3568 12.8641 58.4099 12.6152C58.4682 12.3664 58.5477 11.8528 58.5954 11.4769C58.6431 11.101 58.7014 10.3227 58.7279 9.7562C58.7544 9.13146 58.7544 8.41141 58.7279 7.92961C58.6961 7.49547 58.6378 6.91837 58.5954 6.65894C58.5477 6.39951 58.4735 6.03949 58.4311 5.86477C58.3833 5.69005 58.272 5.3565 58.1766 5.12355C58.0812 4.89059 57.9115 4.55704 57.8002 4.38232C57.6889 4.2076 57.514 3.95876 57.4079 3.8317C57.3019 3.70463 57.0846 3.49815 56.9255 3.37637C56.7665 3.2546 56.5385 3.10636 56.4219 3.04282C56.3053 2.97929 56.1038 2.88399 55.9713 2.82575C55.8388 2.7728 55.5525 2.68809 55.3352 2.64574C55.1178 2.59809 54.6884 2.55044 54.3809 2.53455C54.0735 2.52396 53.6123 2.52926 53.3472 2.55573C53.0822 2.5822 52.6793 2.64044 52.446 2.68809ZM87.7519 0.655019C88.2767 0.655019 88.9182 0.676197 89.1833 0.702669C89.4483 0.734436 89.8512 0.792675 90.0845 0.840325C90.3177 0.887975 90.7365 0.999159 91.0122 1.08387C91.2878 1.17388 91.7066 1.33271 91.9399 1.44389C92.1731 1.55508 92.576 1.78803 92.8411 1.96275C93.1167 2.14806 93.5196 2.4869 93.8006 2.7728C94.0657 3.04812 94.4049 3.46109 94.5587 3.69404C94.7124 3.927 94.9138 4.28702 95.0146 4.48821C95.11 4.6894 95.2637 5.0759 95.3538 5.33533C95.4493 5.59475 95.5818 6.09773 95.6507 6.44716C95.7196 6.7966 95.8044 7.45311 95.8363 7.90314C95.8734 8.47494 95.8734 8.95674 95.8363 9.49148C95.8097 9.91504 95.7461 10.4498 95.709 10.6827C95.6666 10.9157 95.6083 11.2122 95.5765 11.3445C95.55 11.4769 95.4599 11.784 95.3803 12.0328C95.3061 12.2817 95.1524 12.6735 95.0464 12.9064C94.9403 13.1394 94.7124 13.5365 94.5481 13.7959C94.3837 14.05 94.0603 14.4524 93.8324 14.6906C93.6097 14.9236 93.244 15.2519 93.0266 15.416C92.8093 15.5801 92.3905 15.8342 92.0989 15.9878C91.8073 16.136 91.3885 16.3213 91.1712 16.4008C90.9538 16.4749 90.5722 16.5914 90.323 16.6496C90.0739 16.7078 89.6233 16.7873 89.3158 16.8296C89.0083 16.8667 88.3351 16.9037 87.8155 16.9037C87.2907 16.9037 86.6175 16.872 86.2782 16.8243C85.9548 16.782 85.4512 16.6867 85.165 16.6125C84.884 16.5384 84.4281 16.3849 84.1577 16.2684C83.8927 16.1519 83.5163 15.9613 83.3254 15.8501C83.1346 15.7389 82.79 15.4954 82.5621 15.3101C82.3288 15.1248 82.0107 14.8177 81.8517 14.6271C81.6874 14.4365 81.4594 14.1294 81.3375 13.9388C81.2103 13.7482 81.0406 13.4517 80.9558 13.277C80.8657 13.1023 80.7279 12.7793 80.6536 12.5623C80.5741 12.3452 80.4522 11.9375 80.3833 11.6622C80.3144 11.3869 80.2136 10.8839 80.1606 10.5504C80.0917 10.095 80.0705 9.62384 80.0705 8.69731C80.0705 7.77607 80.0917 7.30487 80.1606 6.87072C80.2136 6.54776 80.3091 6.06067 80.378 5.78536C80.4522 5.51004 80.5635 5.12884 80.6377 4.93824C80.7066 4.74764 80.8551 4.41409 80.9664 4.19702C81.0777 3.97994 81.2633 3.65698 81.3852 3.48226C81.5018 3.30755 81.7351 3.01106 81.8941 2.82046C82.0585 2.62985 82.403 2.31748 82.6681 2.11629C82.9278 1.9204 83.3413 1.65567 83.5905 1.52861C83.8397 1.40154 84.2425 1.22682 84.4917 1.13682C84.7409 1.0521 85.1809 0.930331 85.4724 0.866798C85.764 0.803264 86.1828 0.734436 86.4001 0.707964C86.6175 0.681491 87.2271 0.660313 87.7519 0.655019ZM86.1086 2.68809C85.8753 2.73574 85.5042 2.84163 85.2869 2.92105C85.0695 3.00047 84.7674 3.14342 84.6242 3.23872C84.4758 3.32872 84.2797 3.51932 84.1842 3.65698C84.0888 3.79464 83.9563 4.08583 83.8874 4.3029C83.8131 4.51998 83.723 4.91706 83.6753 5.17649C83.6329 5.43592 83.5693 5.93889 83.5322 6.28833C83.4951 6.63776 83.4686 7.60136 83.4633 8.43259C83.4633 9.60266 83.4845 10.095 83.5587 10.6298C83.6117 11.0057 83.7124 11.5457 83.7813 11.821C83.8556 12.1069 84.0411 12.5887 84.2107 12.9329C84.4705 13.4623 84.5659 13.6 84.937 13.9706C85.2551 14.283 85.4671 14.4471 85.764 14.59C85.9813 14.6959 86.3524 14.8389 86.5857 14.8971C86.9408 14.9924 87.1582 15.0136 87.9375 15.0136C88.5683 15.0136 89.0242 14.9818 89.3688 14.9236C89.6445 14.876 90.1004 14.7595 90.376 14.6642C90.6517 14.5689 91.0175 14.41 91.1871 14.3094C91.3885 14.193 91.5423 14.05 91.6271 13.9124C91.696 13.7959 91.802 13.5576 91.8604 13.3829C91.924 13.2082 92.0194 12.8641 92.0724 12.6152C92.1307 12.3664 92.2102 11.8528 92.2579 11.4769C92.3057 11.101 92.364 10.3227 92.3905 9.7562C92.417 9.13146 92.417 8.41141 92.3905 7.92961C92.3587 7.49547 92.3004 6.91837 92.2579 6.65894C92.2102 6.39951 92.136 6.03949 92.0936 5.86477C92.0459 5.69005 91.9346 5.3565 91.8391 5.12355C91.7437 4.89059 91.5741 4.55704 91.4628 4.38232C91.3514 4.2076 91.1765 3.95876 91.0705 3.8317C90.9645 3.70463 90.7471 3.49815 90.5881 3.37637C90.429 3.2546 90.2011 3.10636 90.0845 3.04282C89.9678 2.97929 89.7664 2.88399 89.6339 2.82575C89.5013 2.7728 89.2151 2.68809 88.9977 2.64574C88.7804 2.59809 88.351 2.55044 88.0435 2.53455C87.736 2.52396 87.2748 2.52926 87.0098 2.55573C86.7447 2.5822 86.3418 2.64044 86.1086 2.68809ZM104.239 0.655019C105.055 0.655019 105.972 0.676197 106.28 0.702669C106.587 0.734436 107.096 0.803264 107.419 0.861503C107.743 0.919742 108.22 1.02563 108.48 1.09975C108.739 1.17917 109.137 1.31153 109.354 1.39624C109.572 1.48625 109.953 1.66626 110.197 1.80392C110.441 1.94157 110.833 2.21159 111.072 2.40219C111.305 2.59279 111.65 2.92634 111.83 3.14342C112.015 3.36049 112.281 3.7364 112.429 3.98524C112.577 4.23408 112.774 4.62587 112.858 4.85882C112.948 5.09178 113.081 5.49945 113.145 5.75888C113.214 6.01831 113.298 6.43657 113.335 6.68541C113.373 6.94484 113.404 7.59606 113.399 8.22081C113.399 8.81908 113.373 9.50736 113.335 9.7562C113.304 10.005 113.224 10.4551 113.166 10.7622C113.102 11.0692 112.97 11.5669 112.869 11.874C112.768 12.1811 112.567 12.6682 112.413 12.9594C112.265 13.2506 112.005 13.6688 111.841 13.8859C111.676 14.103 111.337 14.4789 111.088 14.7224C110.833 14.9607 110.42 15.2942 110.16 15.4583C109.906 15.6225 109.508 15.8501 109.275 15.956C109.042 16.0672 108.623 16.2313 108.347 16.3213C108.071 16.4166 107.637 16.5384 107.377 16.5914C107.122 16.6443 106.614 16.729 106.237 16.7714C105.808 16.8243 105.087 16.8508 104.239 16.8508C103.507 16.8508 102.436 16.8243 101.853 16.7978C101.27 16.7714 100.469 16.7237 100.077 16.692C99.6849 16.6602 99.3085 16.6231 99.123 16.5861V0.94092L99.3986 0.903859C99.5524 0.882681 100.003 0.840325 100.395 0.808558C100.788 0.776792 101.482 0.729141 101.933 0.707964C102.383 0.686786 103.422 0.660313 104.239 0.655019ZM102.473 2.37043C102.426 2.3916 102.41 3.71522 102.41 8.75026C102.41 14.7542 102.415 15.1036 102.5 15.1301C102.553 15.1407 102.929 15.1777 103.337 15.2148C103.883 15.2572 104.323 15.2572 105.007 15.2148C105.516 15.183 106.142 15.1248 106.396 15.0771C106.656 15.0348 107.048 14.9289 107.271 14.8389C107.499 14.7542 107.812 14.6006 107.96 14.4947C108.114 14.3942 108.384 14.1612 108.564 13.9812C108.792 13.7482 108.957 13.5047 109.121 13.1711C109.248 12.9117 109.413 12.4776 109.487 12.2181C109.561 11.9587 109.672 11.4081 109.736 11.0004C109.831 10.3757 109.847 10.0103 109.853 8.69731C109.858 7.60665 109.837 7.01367 109.789 6.73836C109.747 6.52129 109.667 6.15067 109.609 5.91772C109.55 5.68476 109.428 5.32474 109.338 5.12355C109.248 4.92236 109.089 4.60998 108.988 4.43527C108.888 4.26055 108.602 3.91111 108.352 3.66227C108.061 3.37637 107.759 3.13283 107.525 3.00047C107.324 2.88928 106.963 2.73045 106.73 2.64574C106.497 2.56632 106.046 2.44984 105.723 2.3969C105.4 2.34395 104.806 2.28571 104.398 2.26983C103.989 2.25924 103.406 2.26983 103.099 2.2963C102.791 2.32278 102.51 2.35984 102.473 2.37043ZM63.605 0.808558H67.1303L68.6358 5.08119C69.4681 7.43723 70.3799 10.0527 70.6609 10.8945C70.9472 11.7363 71.3341 12.917 71.525 13.5153C71.7105 14.1135 71.8802 14.5636 71.8961 14.5212C71.912 14.4789 72.1876 13.6318 72.5057 12.6417C72.8291 11.6516 73.2638 10.3439 73.4811 9.72973C73.6985 9.11557 74.5043 6.86013 76.6724 0.808558H77.6638C78.5862 0.808558 78.6604 0.813853 78.6339 0.903859C78.618 0.951509 77.298 4.51998 72.7973 16.6655L69.5689 16.692L66.6797 9.00439C65.0947 4.77411 63.7534 1.20035 63.7004 1.06269L63.605 0.808558ZM117.873 12.827C117.884 12.827 118.377 13.2929 118.976 13.87C119.575 14.4471 120.063 14.9289 120.063 14.9448C120.063 14.9554 119.57 15.4478 117.879 17.089L115.742 14.9448L116.802 13.8859C117.386 13.3035 117.868 12.827 117.873 12.827Z" fill="#C71010"/>
<path d="M128.704 0.787388C128.953 0.739737 129.335 0.681498 129.552 0.655026C129.769 0.628554 130.283 0.607376 130.692 0.602081C131.1 0.602081 131.768 0.623259 132.176 0.649731C132.584 0.681498 133.135 0.729148 133.395 0.755621C133.655 0.787388 134.121 0.850921 134.424 0.903866C134.726 0.951516 134.986 1.01505 134.996 1.04682C135.007 1.07858 134.89 1.58685 134.731 2.18513C134.524 2.96341 134.424 3.27049 134.371 3.2652C134.328 3.2599 133.952 3.18578 133.528 3.09577C133.104 3.00577 132.303 2.86811 131.752 2.78869C130.92 2.66692 130.559 2.64574 129.684 2.64574C128.757 2.64574 128.571 2.66163 128.2 2.76222C127.967 2.82576 127.633 2.95282 127.463 3.04812C127.288 3.14342 127.023 3.32873 126.88 3.46109C126.732 3.59345 126.535 3.84759 126.44 4.01701C126.345 4.18643 126.212 4.55705 126.138 4.83236C126.069 5.10767 125.968 5.65829 125.926 6.05008C125.878 6.44187 125.825 7.29958 125.804 7.95609C125.783 8.7079 125.799 9.44384 125.836 9.94151C125.873 10.381 125.958 11.0269 126.027 11.3869C126.101 11.7416 126.239 12.2552 126.334 12.5252C126.429 12.7899 126.599 13.1764 126.716 13.3829C126.838 13.6053 127.082 13.9124 127.32 14.1559C127.622 14.4577 127.824 14.6059 128.121 14.7489C128.338 14.8548 128.688 14.9818 128.889 15.0348C129.186 15.1089 129.462 15.1301 130.294 15.1248C130.925 15.1248 131.641 15.0824 132.123 15.0295C132.558 14.9766 133.241 14.8654 133.634 14.7807C134.026 14.7012 134.508 14.5848 135.065 14.4153V15.7654L134.63 15.9401C134.387 16.0354 133.941 16.1837 133.634 16.2737C133.326 16.3584 132.733 16.5014 132.308 16.5861C131.884 16.6708 131.169 16.782 130.718 16.8296C130.135 16.8879 129.637 16.909 128.995 16.8879C128.502 16.872 127.877 16.819 127.617 16.7714C127.357 16.7237 126.933 16.6178 126.673 16.5331C126.419 16.4431 126.064 16.3002 125.878 16.2102C125.698 16.1149 125.406 15.9454 125.231 15.829C125.056 15.7125 124.76 15.4689 124.574 15.2942C124.389 15.1142 124.092 14.7807 123.922 14.5477C123.747 14.3147 123.498 13.9071 123.371 13.6476C123.238 13.3882 123.053 12.9223 122.952 12.6152C122.856 12.3081 122.729 11.821 122.671 11.5299C122.613 11.2387 122.533 10.7516 122.491 10.4445C122.448 10.1162 122.422 9.3856 122.427 8.67084C122.427 7.74961 122.448 7.32605 122.522 6.92367C122.575 6.63248 122.708 6.10832 122.825 5.75889C122.941 5.40945 123.164 4.8853 123.312 4.59411C123.461 4.30291 123.721 3.88465 123.885 3.66758C124.049 3.4505 124.394 3.0693 124.654 2.82046C124.913 2.57162 125.327 2.23278 125.576 2.06865C125.825 1.90452 126.255 1.66097 126.53 1.52332C126.806 1.38566 127.309 1.17918 127.643 1.07329C127.977 0.962105 128.455 0.835038 128.704 0.787388Z" fill="#2E2E2E"/>
<path d="M137.875 16.692V8.75026V0.808565H141.108V16.692H137.875Z" fill="#2E2E2E"/>
<path d="M143.261 2.31749C143.266 2.25925 143.298 1.89393 143.335 1.50743L143.399 0.808565H149.834C155.931 0.808565 156.27 0.81386 156.27 0.903866C156.27 0.951516 156.243 1.2533 156.217 1.57626C156.185 1.89922 156.148 2.2063 156.137 2.26454C156.116 2.36514 156.058 2.37043 154.748 2.41279C153.996 2.43397 152.935 2.47103 151.393 2.52927V16.692H148.159V2.50279L147.406 2.4975C146.987 2.4922 145.885 2.47632 144.952 2.45514C143.298 2.42338 143.255 2.41808 143.261 2.31749Z" fill="#2E2E2E"/>
<path d="M159.228 6.19833C157.945 3.76817 156.779 1.56567 156.63 1.29566L156.365 0.808565H160.087L162.027 4.68411C163.209 7.05603 163.983 8.54378 164.01 8.51201C164.036 8.48024 164.948 6.74366 168.023 0.835038L169.014 0.819154C169.555 0.81386 170 0.81386 170 0.819154C170 0.824449 168.834 3.03753 164.805 10.6298V16.692H161.571L161.56 10.6086L159.228 6.19833Z" fill="#2E2E2E"/>
</svg>
