<svg width="57" height="50" viewBox="0 0 57 50" fill="none" xmlns="http://www.w3.org/2000/svg">
<path d="M6.16928 38.6822L30.5087 43.3554L32.3997 40.0917L10.7647 30.7438L6.16928 38.6822ZM17.4449 19.2039L36.377 33.2309L38.268 29.9657L22.0417 11.264L17.4463 19.2039H17.4449ZM11.7895 28.979L33.4245 38.3299L35.3522 34.9942L16.4201 20.9687L11.7895 28.979ZM28.2286 0.572754L23.1194 9.41118L39.3471 28.1158L41.752 23.9696L28.2286 0.572754ZM0 49.3559H27.0438L29.4472 45.2097L5.10926 40.5365L0 49.3559ZM42.9163 38.4356L49.2441 49.3559H56.4382L42.9163 25.9796L29.3944 49.3559H36.5884L42.9163 38.4356Z" fill="#FCAF17"/>
</svg>
